<svg width="736" height="506" viewBox="0 0 736 506" fill="none" xmlns="http://www.w3.org/2000/svg">
<g clip-path="url(#clip0_61_71)">
<path d="M618.322 505.46C683.098 505.46 735.61 501.443 735.61 496.487C735.61 491.532 683.098 487.515 618.322 487.515C553.545 487.515 501.033 491.532 501.033 496.487C501.033 501.443 553.545 505.46 618.322 505.46Z" fill="#E6E6E6"/>
<path d="M119.466 139.213C119.503 130.081 111.847 122.611 102.86 122.611H19.4669C10.6221 122.611 2.98012 129.957 2.87657 138.945C2.84448 141.499 3.39663 144.026 4.48951 146.326C5.58238 148.627 7.1861 150.638 9.17429 152.201C9.68394 152.587 10.085 153.102 10.3374 153.695C10.5898 154.288 10.6846 154.938 10.6125 155.579C10.5158 156.307 10.4673 157.042 10.4673 157.776V216.392C10.4673 218.55 10.8856 220.686 11.6981 222.68C12.5106 224.673 13.7015 226.484 15.2029 228.01C16.7042 229.535 18.4866 230.746 20.4482 231.571C22.4098 232.397 24.5122 232.822 26.6354 232.822H95.1634C99.4515 232.822 103.564 231.091 106.596 228.01C109.628 224.929 111.331 220.75 111.331 216.392V157.776C111.332 157.133 111.295 156.491 111.221 155.852C111.156 155.22 111.258 154.581 111.518 154.003C111.777 153.424 112.184 152.927 112.697 152.562C114.783 151.039 116.485 149.035 117.661 146.715C118.838 144.394 119.456 141.823 119.466 139.213Z" fill="#3F3D56"/>
<path d="M115.854 137.605C115.438 134.425 113.893 131.51 111.509 129.408C109.124 127.306 106.066 126.162 102.91 126.192H19.4421C16.4915 126.166 13.6201 127.162 11.3021 129.018C8.98417 130.873 7.35833 133.477 6.69312 136.398C6.12356 139.083 6.40741 141.882 7.50378 144.393C8.60014 146.903 10.4524 148.995 12.7938 150.367C13.4697 150.76 13.9979 151.37 14.2954 152.101C14.5928 152.832 14.6426 153.643 14.4369 154.407C14.1407 155.505 13.9912 156.64 13.9922 157.779V216.389C13.9926 219.385 15.0223 222.286 16.9034 224.592C18.7846 226.898 21.3991 228.464 24.2956 229.019C25.0681 229.166 25.8523 229.24 26.6382 229.24H95.1662C96.3231 229.242 97.4747 229.08 98.588 228.76C101.241 228.002 103.577 226.383 105.241 224.151C106.905 221.919 107.806 219.195 107.807 216.395V157.773C107.807 156.707 107.676 155.644 107.416 154.61C107.346 154.324 107.309 154.03 107.308 153.734C107.308 153.086 107.482 152.451 107.811 151.896C108.139 151.34 108.61 150.886 109.173 150.582L109.179 150.577C111.45 149.352 113.303 147.457 114.494 145.142C115.686 142.826 116.16 140.199 115.854 137.605V137.605Z" fill="#01BF71"/>
<path opacity="0.2" d="M107.807 163.389V157.878H98.5879V126.192H93.1651V157.878H64.1531V126.192H58.7303V157.878H29.7183V126.192H24.2955V157.878H13.9922V163.389H24.2955V179.92H13.9922V185.431H24.2955V201.963H13.9922V207.473H24.2955V229.019C25.0681 229.166 25.8523 229.239 26.6382 229.24H29.7183V207.473H58.7303V229.24H64.1531V207.473H93.1651V229.24H95.1661C96.323 229.241 97.4746 229.08 98.5879 228.76V207.473H107.807V201.962H98.5879V185.431H107.807V179.92H98.5879V163.389H107.807ZM29.7184 163.389H58.7303V179.92H29.7184V163.389ZM29.7184 201.962V185.431H58.7303V201.962H29.7184ZM93.1652 201.962H64.1532V185.431H93.1652V201.962ZM93.1652 179.92H64.1532V163.389H93.1652V179.92Z" fill="black"/>
<path d="M119.086 0C119.086 7.72858 117.588 15.3815 114.677 22.5218C111.767 29.662 107.501 36.1499 102.123 41.6148C96.7449 47.0797 90.3604 51.4148 83.3338 54.3724C76.3072 57.33 68.7762 58.8522 61.1707 58.8522C53.5652 58.8522 46.0341 57.33 39.0075 54.3724C31.9809 51.4148 25.5964 47.0797 20.2185 41.6148C14.8406 36.1499 10.5746 29.662 7.66414 22.5218C4.75363 15.3815 3.25562 7.72858 3.25562 0H119.086Z" fill="#01BF71"/>
<path d="M24.5026 10.4471C24.5026 11.9857 23.9656 13.233 23.3032 13.233C22.6407 13.233 22.1038 11.9857 22.1038 10.4471C22.1766 9.40592 22.6001 8.42207 23.3032 7.66113C24.0062 8.42207 24.4298 9.40592 24.5026 10.4471V10.4471Z" fill="#3F3D56"/>
<path d="M85.1591 20.1978C85.1591 21.7364 84.6221 22.9837 83.9597 22.9837C83.2972 22.9837 82.7603 21.7364 82.7603 20.1978C82.8331 19.1567 83.2566 18.1728 83.9597 17.4119C84.6627 18.1728 85.0863 19.1567 85.1591 20.1978Z" fill="#3F3D56"/>
<path d="M40.6091 14.626C40.6091 16.1646 40.0721 17.4119 39.4097 17.4119C38.7472 17.4119 38.2102 16.1646 38.2102 14.626C38.283 13.5849 38.7066 12.601 39.4097 11.8401C40.1127 12.601 40.5363 13.5849 40.6091 14.626Z" fill="#3F3D56"/>
<path d="M64.5976 36.565C64.5976 38.1036 64.0606 39.3509 63.3981 39.3509C62.7357 39.3509 62.1987 38.1036 62.1987 36.565C62.2715 35.5238 62.6951 34.54 63.3981 33.7791C64.1012 34.54 64.5248 35.5238 64.5976 36.565V36.565Z" fill="#3F3D56"/>
<path d="M38.8957 33.7791C38.8957 35.3177 38.3587 36.565 37.6963 36.565C37.0338 36.565 36.4968 35.3177 36.4968 33.7791C36.5696 32.7379 36.9932 31.7541 37.6963 30.9932C38.3993 31.7541 38.8229 32.7379 38.8957 33.7791V33.7791Z" fill="#3F3D56"/>
<path d="M98.8669 7.66115C98.8669 9.19977 98.3299 10.4471 97.6674 10.4471C97.005 10.4471 96.468 9.19977 96.468 7.66115C96.5408 6.62002 96.9644 5.63618 97.6674 4.87524C98.3705 5.63618 98.7941 6.62002 98.8669 7.66115Z" fill="#3F3D56"/>
<path d="M76.9345 42.1367C76.9345 43.6753 76.3975 44.9226 75.7351 44.9226C75.0726 44.9226 74.5356 43.6753 74.5356 42.1367C74.6085 41.0956 75.032 40.1118 75.7351 39.3508C76.4381 40.1118 76.8617 41.0956 76.9345 42.1367V42.1367Z" fill="#3F3D56"/>
<path d="M61.1706 62.1605C44.9528 62.1418 29.4045 55.5868 17.9367 43.9335C6.46899 32.2802 0.0183571 16.4803 0 0H6.51111C6.51111 7.29414 7.92493 14.5168 10.6718 21.2558C13.4187 27.9947 17.4449 34.1178 22.5205 39.2755C27.5961 44.4333 33.6217 48.5246 40.2533 51.3159C46.8849 54.1073 53.9926 55.544 61.1706 55.544C68.3486 55.544 75.4563 54.1073 82.0879 51.3159C88.7195 48.5246 94.7451 44.4333 99.8207 39.2755C104.896 34.1178 108.922 27.9947 111.669 21.2558C114.416 14.5168 115.83 7.29414 115.83 0H122.341C122.323 16.4802 115.872 32.2802 104.404 43.9335C92.9368 55.5868 77.3885 62.1418 61.1706 62.1605Z" fill="#3F3D56"/>
<path d="M202.071 21.3401H182.901V40.8204H202.071V21.3401Z" fill="#3F3D56"/>
<path d="M389.938 30.1062H235.618V32.0542H389.938V30.1062Z" fill="#3F3D56"/>
<path d="M202.071 167.976H182.901V187.456H202.071V167.976Z" fill="#3F3D56"/>
<path d="M389.938 176.742H235.618V178.69H389.938V176.742Z" fill="#3F3D56"/>
<path d="M202.071 313.593H182.901V333.073H202.071V313.593Z" fill="#3F3D56"/>
<path d="M389.938 322.359H235.618V324.307H389.938V322.359Z" fill="#3F3D56"/>
<path d="M606.085 133.775L581.597 153.389L529.708 134.858C529.708 134.858 512.066 114.692 502.089 129.712C498.672 134.856 521.052 144.359 523.163 145.242C528.442 147.45 579.004 175.638 583.959 171.94C588.914 168.242 616.791 149.537 616.791 149.537L606.085 133.775Z" fill="#A0616A"/>
<path d="M689.676 100.316C666.468 91.5037 644.39 87.3341 626.49 100.316V58.4172C626.49 54.2012 627.307 50.0265 628.895 46.1314C630.482 42.2363 632.809 38.6971 635.743 35.7159C638.677 32.7347 642.16 30.37 645.993 28.7566C649.826 27.1432 653.934 26.3127 658.083 26.3127H658.083C662.232 26.3127 666.34 27.1432 670.173 28.7566C674.006 30.37 677.489 32.7348 680.423 35.716C683.357 38.6971 685.684 42.2363 687.271 46.1314C688.859 50.0265 689.676 54.2012 689.676 58.4173L689.676 100.316Z" fill="#2F2E41"/>
<path d="M631.36 191.846L629.463 205.336C629.463 205.336 624.722 219.79 629.463 246.77L553.13 458.276L609.55 474.657L637.523 359.027L676.875 270.86L673.082 371.072L653.169 478.03L711.96 475.621L729.092 292.221C731.862 263.236 726.914 234.027 714.767 207.652C710.014 197.396 704.904 189.312 700.267 188.139C686.357 184.619 631.36 191.846 631.36 191.846Z" fill="#2F2E41"/>
<path d="M560.242 456.831L540.803 478.03C540.803 478.03 503.347 497.783 529.898 500.192C556.449 502.601 565.457 492.002 565.457 492.002C565.457 492.002 598.645 489.593 598.171 484.775C597.697 479.957 595.326 464.058 595.326 464.058L560.242 456.831Z" fill="#2F2E41"/>
<path d="M665.733 461.943V476.878C665.733 476.878 666.207 483.141 665.733 484.587C665.259 486.032 658.147 503.858 681.853 500.004C705.559 496.15 696.077 481.214 696.077 481.214L690.387 459.534L665.733 461.943Z" fill="#2F2E41"/>
<path d="M657.792 87.7789C670.95 87.7789 681.616 76.9397 681.616 63.5689C681.616 50.1981 670.95 39.3589 657.792 39.3589C644.634 39.3589 633.967 50.1981 633.967 63.5689C633.967 76.9397 644.634 87.7789 657.792 87.7789Z" fill="#A0616A"/>
<path d="M674.267 76.9385C674.267 76.9385 670.949 108.737 674.267 114.518C677.586 120.3 640.605 108.737 640.605 108.737C640.605 108.737 648.665 87.0562 645.82 78.3839C642.976 69.7116 674.267 76.9385 674.267 76.9385Z" fill="#A0616A"/>
<path d="M693.232 168.479L700.818 189.678L630.175 197.868C630.175 197.868 622.589 196.423 622.589 190.16C622.589 183.896 614.529 161.734 614.529 161.734C614.529 161.734 594.788 145.475 585.306 141.139C581.869 139.568 587.011 140.217 589.903 133.549C590.77 131.545 591.809 129.43 592.942 127.286C593.866 125.527 594.862 123.745 595.881 121.986C597.119 119.842 598.394 117.732 599.632 115.723C603.377 109.647 606.796 104.54 607.891 102.474C611.21 96.2102 642.412 95.6514 642.412 95.6514C651.334 101.356 677.112 102.474 677.112 102.474C677.112 102.474 694.844 110.014 702.231 115.723C702.767 116.132 693.232 168.479 693.232 168.479Z" fill="#01BF71"/>
<path d="M677.896 34.5058V33.9309L677.223 33.9689C673.404 31.013 668.972 28.98 664.264 28.024C659.556 27.068 654.695 27.2141 650.051 28.4512C654.503 29.6468 658.642 31.8202 662.178 34.8182L639.341 36.1074L629.703 57.8732H636.226L641.483 48.0786V57.8732H663.545L665.044 50.2552L669.209 57.8732H673.544C673.571 58.4164 673.612 58.9557 673.612 59.5056L669.328 101.405L689.676 92.6985V59.5056C689.68 54.7081 688.623 49.971 686.584 45.644C684.545 41.317 681.576 37.5106 677.896 34.5058V34.5058Z" fill="#2F2E41"/>
<path d="M709.826 145.353L708.404 183.415L704.611 257.129C704.611 257.129 709.826 288.927 696.551 288.445C683.276 287.963 693.232 250.865 693.232 250.865L689.439 192.569L693.232 151.616L709.826 145.353Z" fill="#A0616A"/>
<path d="M713.619 166.07C713.619 170.406 689.676 169.202 689.676 169.202L677.112 102.474C677.112 102.474 694.844 110.014 702.231 115.723C703.97 117.555 705.391 119.673 706.437 121.986C707.001 123.533 707.537 125.325 708.044 127.286C708.546 129.232 709.016 131.347 709.457 133.549C711.526 144.288 712.916 155.151 713.619 166.07V166.07Z" fill="#01BF71"/>
<path d="M60.5259 320.863L24.2349 317.045C24.5138 315.087 24.2997 313.088 23.6126 311.237C22.9256 309.386 21.788 307.741 20.3061 306.458C18.8242 305.174 17.0463 304.294 15.1386 303.898C13.2308 303.502 11.2555 303.603 9.39691 304.193C7.53836 304.783 5.85728 305.842 4.51071 307.272C3.16415 308.701 2.19601 310.454 1.69672 312.366C1.19743 314.279 1.1833 316.289 1.65562 318.208C2.12794 320.128 3.07131 321.894 4.39763 323.343C3.05007 324.822 2.10091 326.629 1.64196 328.59C1.18301 330.551 1.2298 332.599 1.7778 334.536C2.32581 336.474 3.35648 338.234 4.77013 339.648C6.18378 341.062 7.93258 342.081 9.84736 342.607C11.7621 343.133 13.7781 343.149 15.7003 342.651C17.6225 342.154 19.3858 341.161 20.8197 339.768C22.2536 338.375 23.3096 336.63 23.8855 334.701C24.4615 332.772 24.5378 330.725 24.1073 328.758L60.5259 325.356V320.863Z" fill="#CCCCCC"/>
<path d="M97.43 346.21C111.697 349.774 126.069 339.492 126.813 324.581C126.833 324.168 126.844 323.752 126.844 323.333C126.844 322.914 126.833 322.498 126.813 322.085C126.069 307.174 111.697 296.891 97.43 300.456L49.0309 312.55C47.6366 312.549 46.2557 312.827 44.9672 313.368C43.6786 313.91 42.5077 314.704 41.5213 315.705C40.535 316.706 39.7525 317.895 39.2186 319.204C38.6847 320.513 38.4099 321.916 38.4099 323.333C38.4099 324.75 38.6847 326.153 39.2186 327.462C39.7525 328.771 40.535 329.96 41.5213 330.961C42.5077 331.962 43.6786 332.756 44.9672 333.298C46.2557 333.839 47.6366 334.117 49.0309 334.115L97.43 346.21Z" fill="#01BF71"/>
</g>
<defs>
<clipPath id="clip0_61_71">
<rect width="735.61" height="505.46" fill="white"/>
</clipPath>
</defs>
</svg>
