<svg width="160" height="67" viewBox="0 0 160 67" fill="none" xmlns="http://www.w3.org/2000/svg">
<circle cx="33.486" cy="33.486" r="33.486" fill="#4393FB"/>
<path d="M36.2526 39.0349H41.5084C41.403 40.7576 40.9284 42.2869 40.0846 43.6228C39.2526 44.9587 38.0866 46.0017 36.5866 46.7517C35.0983 47.5017 33.3053 47.8767 31.2076 47.8767C29.567 47.8767 28.0963 47.5955 26.7955 47.033C25.4948 46.4587 24.3815 45.6384 23.4557 44.572C22.5416 43.5056 21.8444 42.2166 21.3639 40.7048C20.8834 39.1931 20.6432 37.4998 20.6432 35.6248V33.8494C20.6432 31.9744 20.8893 30.281 21.3815 28.7693C21.8854 27.2458 22.6002 25.9509 23.526 24.8845C24.4635 23.8181 25.5826 22.9978 26.8834 22.4236C28.1842 21.8494 29.6373 21.5623 31.2428 21.5623C33.3756 21.5623 35.1744 21.949 36.6393 22.7224C38.1159 23.4958 39.2584 24.5623 40.067 25.9216C40.8873 27.281 41.3795 28.8279 41.5436 30.5623H36.2701C36.2116 29.531 36.0065 28.658 35.6549 27.9431C35.3034 27.2166 34.7701 26.6716 34.0553 26.3083C33.3522 25.9333 32.4147 25.7458 31.2428 25.7458C30.3639 25.7458 29.5963 25.9099 28.9401 26.238C28.2838 26.5662 27.733 27.0642 27.2877 27.7322C26.8424 28.4001 26.5084 29.2439 26.2858 30.2634C26.0748 31.2712 25.9694 32.4548 25.9694 33.8142V35.6248C25.9694 36.949 26.069 38.115 26.2682 39.1228C26.4674 40.1189 26.7721 40.9626 27.1823 41.6541C27.6041 42.3337 28.1432 42.8494 28.7994 43.2009C29.4674 43.5408 30.2701 43.7107 31.2076 43.7107C32.3092 43.7107 33.2174 43.5349 33.9323 43.1833C34.6471 42.8318 35.192 42.3103 35.567 41.6189C35.9537 40.9275 36.1823 40.0662 36.2526 39.0349ZM54.9205 43.2361V34.7634C54.9205 34.1541 54.8209 33.6326 54.6217 33.199C54.4225 32.7537 54.1119 32.408 53.6901 32.1619C53.2799 31.9158 52.7467 31.7927 52.0905 31.7927C51.528 31.7927 51.0416 31.8923 50.6315 32.0916C50.2213 32.2791 49.9049 32.5544 49.6823 32.9177C49.4596 33.2693 49.3483 33.6853 49.3483 34.1658H44.2858C44.2858 33.3572 44.4733 32.5896 44.8483 31.863C45.2233 31.1365 45.7682 30.4978 46.483 29.947C47.1979 29.3845 48.0475 28.9451 49.0319 28.6287C50.028 28.3123 51.1412 28.1541 52.3717 28.1541C53.8483 28.1541 55.1608 28.4001 56.3092 28.8923C57.4576 29.3845 58.36 30.1228 59.0162 31.1072C59.6842 32.0916 60.0182 33.322 60.0182 34.7986V42.9373C60.0182 43.9802 60.0826 44.8357 60.2116 45.5037C60.3405 46.1599 60.528 46.7341 60.7741 47.2263V47.5251H55.6588C55.4127 47.0095 55.2252 46.365 55.0963 45.5916C54.9791 44.8064 54.9205 44.0212 54.9205 43.2361ZM55.5885 35.9412L55.6237 38.8064H52.7936C52.1256 38.8064 51.5455 38.8826 51.0534 39.0349C50.5612 39.1873 50.1569 39.4041 49.8405 39.6853C49.5241 39.9548 49.2897 40.2712 49.1373 40.6345C48.9967 40.9978 48.9264 41.3962 48.9264 41.8298C48.9264 42.2634 49.026 42.656 49.2252 43.0076C49.4244 43.3474 49.7116 43.6169 50.0866 43.8162C50.4616 44.0037 50.901 44.0974 51.4049 44.0974C52.1666 44.0974 52.8287 43.9451 53.3912 43.6404C53.9537 43.3357 54.3873 42.9607 54.692 42.5154C55.0084 42.0701 55.1725 41.6482 55.1842 41.2498L56.5201 43.3943C56.3326 43.8748 56.0748 44.3728 55.7467 44.8884C55.4303 45.4041 55.026 45.8904 54.5338 46.3474C54.0416 46.7927 53.4498 47.1619 52.7584 47.4548C52.067 47.7361 51.2467 47.8767 50.2975 47.8767C49.0905 47.8767 47.9948 47.6365 47.0104 47.156C46.0377 46.6638 45.2643 45.99 44.6901 45.1345C44.1276 44.2673 43.8463 43.283 43.8463 42.1814C43.8463 41.1853 44.0338 40.3005 44.4088 39.5271C44.7838 38.7537 45.3346 38.1033 46.0612 37.5759C46.7994 37.0369 47.7194 36.6326 48.8209 36.363C49.9225 36.0818 51.1998 35.9412 52.653 35.9412H55.5885ZM69.2643 20.5251V47.5251H64.1842V20.5251H69.2643ZM72.6393 38.2087V37.8396C72.6393 36.4451 72.8385 35.1619 73.2369 33.99C73.6354 32.8064 74.2155 31.781 74.9772 30.9138C75.7389 30.0466 76.6764 29.3728 77.7897 28.8923C78.903 28.4001 80.1803 28.1541 81.6217 28.1541C83.0631 28.1541 84.3463 28.4001 85.4713 28.8923C86.5963 29.3728 87.5397 30.0466 88.3014 30.9138C89.0748 31.781 89.6608 32.8064 90.0592 33.99C90.4576 35.1619 90.6569 36.4451 90.6569 37.8396V38.2087C90.6569 39.5916 90.4576 40.8748 90.0592 42.0583C89.6608 43.2302 89.0748 44.2556 88.3014 45.1345C87.5397 46.0017 86.6022 46.6755 85.4889 47.156C84.3756 47.6365 83.0983 47.8767 81.6569 47.8767C80.2155 47.8767 78.9323 47.6365 77.8073 47.156C76.694 46.6755 75.7506 46.0017 74.9772 45.1345C74.2155 44.2556 73.6354 43.2302 73.2369 42.0583C72.8385 40.8748 72.6393 39.5916 72.6393 38.2087ZM77.7018 37.8396V38.2087C77.7018 39.0056 77.7721 39.7498 77.9127 40.4412C78.0534 41.1326 78.276 41.7419 78.5807 42.2693C78.8971 42.7849 79.3073 43.1892 79.8112 43.4822C80.3151 43.7751 80.9303 43.9216 81.6569 43.9216C82.36 43.9216 82.9635 43.7751 83.4674 43.4822C83.9713 43.1892 84.3756 42.7849 84.6803 42.2693C84.985 41.7419 85.2076 41.1326 85.3483 40.4412C85.5006 39.7498 85.5768 39.0056 85.5768 38.2087V37.8396C85.5768 37.0662 85.5006 36.3396 85.3483 35.6599C85.2076 34.9685 84.9791 34.3591 84.6627 33.8318C84.358 33.2927 83.9537 32.8708 83.4498 32.5662C82.9459 32.2615 82.3366 32.1091 81.6217 32.1091C80.9069 32.1091 80.2975 32.2615 79.7936 32.5662C79.3014 32.8708 78.8971 33.2927 78.5807 33.8318C78.276 34.3591 78.0534 34.9685 77.9127 35.6599C77.7721 36.3396 77.7018 37.0662 77.7018 37.8396ZM98.8307 32.6541V47.5251H93.7682V28.5056H98.5319L98.8307 32.6541ZM104.561 28.3826L104.473 33.0759C104.227 33.0408 103.928 33.0115 103.577 32.988C103.237 32.9529 102.926 32.9353 102.645 32.9353C101.93 32.9353 101.309 33.0291 100.782 33.2166C100.266 33.3923 99.8326 33.656 99.4811 34.0076C99.1412 34.3591 98.8834 34.7869 98.7076 35.2908C98.5436 35.7947 98.4498 36.3689 98.4264 37.0134L97.4069 36.697C97.4069 35.4666 97.5299 34.3357 97.776 33.3044C98.0221 32.2615 98.3795 31.3533 98.8483 30.5798C99.3287 29.8064 99.9147 29.2087 100.606 28.7869C101.297 28.365 102.089 28.1541 102.979 28.1541C103.26 28.1541 103.547 28.1775 103.84 28.2244C104.133 28.2595 104.374 28.3123 104.561 28.3826ZM112.296 28.5056V47.5251H107.215V28.5056H112.296ZM106.899 23.5486C106.899 22.8103 107.157 22.2009 107.672 21.7205C108.188 21.24 108.88 20.9998 109.747 20.9998C110.602 20.9998 111.288 21.24 111.803 21.7205C112.331 22.2009 112.594 22.8103 112.594 23.5486C112.594 24.2869 112.331 24.8962 111.803 25.3767C111.288 25.8572 110.602 26.0974 109.747 26.0974C108.88 26.0974 108.188 25.8572 107.672 25.3767C107.157 24.8962 106.899 24.2869 106.899 23.5486ZM125.233 47.8767C123.756 47.8767 122.432 47.6423 121.26 47.1736C120.089 46.6931 119.092 46.031 118.272 45.1873C117.464 44.3435 116.842 43.365 116.409 42.2517C115.975 41.1267 115.758 39.9314 115.758 38.6658V37.9626C115.758 36.5212 115.964 35.2029 116.374 34.0076C116.784 32.8123 117.37 31.7751 118.131 30.8962C118.905 30.0173 119.842 29.3435 120.944 28.8748C122.046 28.3943 123.288 28.1541 124.671 28.1541C126.018 28.1541 127.214 28.3767 128.256 28.822C129.299 29.2673 130.172 29.9001 130.876 30.7205C131.59 31.5408 132.13 32.5251 132.493 33.6736C132.856 34.8103 133.038 36.0759 133.038 37.4705V39.5798H117.921V36.2048H128.063V35.8181C128.063 35.115 127.934 34.488 127.676 33.9373C127.43 33.3748 127.055 32.9294 126.551 32.6013C126.047 32.2732 125.403 32.1091 124.618 32.1091C123.95 32.1091 123.376 32.2556 122.895 32.5486C122.415 32.8416 122.022 33.2517 121.717 33.7791C121.424 34.3064 121.202 34.9275 121.049 35.6423C120.909 36.3455 120.839 37.1189 120.839 37.9626V38.6658C120.839 39.4275 120.944 40.1306 121.155 40.7751C121.378 41.4197 121.688 41.9763 122.087 42.4451C122.497 42.9138 122.989 43.2771 123.563 43.5349C124.149 43.7927 124.811 43.9216 125.549 43.9216C126.464 43.9216 127.313 43.7458 128.098 43.3943C128.895 43.031 129.581 42.4861 130.155 41.7595L132.616 44.4314C132.217 45.0056 131.672 45.5564 130.981 46.0837C130.301 46.6111 129.481 47.0447 128.52 47.3845C127.559 47.7126 126.464 47.8767 125.233 47.8767ZM146.204 42.2693C146.204 41.906 146.098 41.5779 145.887 41.2849C145.676 40.9919 145.284 40.7224 144.71 40.4763C144.147 40.2185 143.333 39.9841 142.266 39.7732C141.305 39.5623 140.409 39.2986 139.577 38.9822C138.756 38.6541 138.042 38.2615 137.432 37.8044C136.835 37.3474 136.366 36.8083 136.026 36.1873C135.686 35.5544 135.516 34.8337 135.516 34.0251C135.516 33.2283 135.686 32.4783 136.026 31.7751C136.378 31.072 136.876 30.4509 137.52 29.9119C138.176 29.3611 138.973 28.9333 139.911 28.6287C140.86 28.3123 141.926 28.1541 143.11 28.1541C144.762 28.1541 146.18 28.4177 147.364 28.9451C148.559 29.4724 149.473 30.199 150.106 31.1248C150.751 32.0388 151.073 33.0818 151.073 34.2537H146.01C146.01 33.7615 145.905 33.322 145.694 32.9353C145.495 32.5369 145.178 32.2263 144.745 32.0037C144.323 31.7693 143.772 31.6521 143.092 31.6521C142.53 31.6521 142.044 31.7517 141.633 31.9509C141.223 32.1384 140.907 32.3962 140.684 32.7244C140.473 33.0408 140.368 33.3923 140.368 33.7791C140.368 34.072 140.426 34.3357 140.544 34.5701C140.672 34.7927 140.878 34.9978 141.159 35.1853C141.44 35.3728 141.803 35.5486 142.249 35.7126C142.706 35.865 143.268 36.0056 143.936 36.1345C145.307 36.4158 146.532 36.7849 147.61 37.2419C148.688 37.6873 149.544 38.2966 150.176 39.0701C150.809 39.8318 151.126 40.8337 151.126 42.0759C151.126 42.9197 150.938 43.6931 150.563 44.3962C150.188 45.0994 149.649 45.7146 148.946 46.2419C148.243 46.7576 147.399 47.1619 146.415 47.4548C145.442 47.7361 144.346 47.8767 143.128 47.8767C141.358 47.8767 139.858 47.5603 138.628 46.9275C137.409 46.2947 136.483 45.4919 135.85 44.5193C135.229 43.5349 134.919 42.5271 134.919 41.4958H139.717C139.741 42.1873 139.917 42.7439 140.245 43.1658C140.585 43.5876 141.012 43.8923 141.528 44.0798C142.055 44.2673 142.624 44.3611 143.233 44.3611C143.889 44.3611 144.434 44.2732 144.868 44.0974C145.301 43.9099 145.63 43.6638 145.852 43.3591C146.087 43.0427 146.204 42.6794 146.204 42.2693Z" fill="#16194F"/>
</svg>
