<svg width="115" height="53" viewBox="0 0 115 53" fill="none" xmlns="http://www.w3.org/2000/svg">
<ellipse cx="57.7121" cy="26.3963" rx="25.9451" ry="26.3963" fill="#01BF71"/>
<path d="M63.4375 29.7195H69.2773C69.1602 31.6336 68.6328 33.3328 67.6953 34.8172C66.7708 36.3015 65.4753 37.4604 63.8086 38.2937C62.1549 39.1271 60.1628 39.5437 57.832 39.5437C56.0091 39.5437 54.375 39.2312 52.9297 38.6062C51.4844 37.9682 50.2474 37.0568 49.2188 35.8719C48.2031 34.687 47.4284 33.2547 46.8945 31.575C46.3607 29.8953 46.0938 28.0138 46.0938 25.9305V23.9578C46.0938 21.8745 46.3672 19.993 46.9141 18.3133C47.474 16.6206 48.2682 15.1818 49.2969 13.9969C50.3385 12.812 51.582 11.9005 53.0273 11.2625C54.4727 10.6245 56.0872 10.3055 57.8711 10.3055C60.2409 10.3055 62.2396 10.7351 63.8672 11.5945C65.5078 12.4539 66.7773 13.6388 67.6758 15.1492C68.5872 16.6596 69.1341 18.3784 69.3164 20.3055H63.457C63.3919 19.1596 63.1641 18.1896 62.7734 17.3953C62.3828 16.588 61.7904 15.9825 60.9961 15.5789C60.2148 15.1622 59.1732 14.9539 57.8711 14.9539C56.8945 14.9539 56.0417 15.1362 55.3125 15.5008C54.5833 15.8653 53.9714 16.4187 53.4766 17.1609C52.9818 17.9031 52.6107 18.8406 52.3633 19.9734C52.1289 21.0932 52.0117 22.4083 52.0117 23.9187V25.9305C52.0117 27.4018 52.1224 28.6974 52.3438 29.8172C52.5651 30.9239 52.9036 31.8614 53.3594 32.6297C53.8281 33.3849 54.4271 33.9578 55.1562 34.3484C55.8984 34.726 56.7904 34.9148 57.832 34.9148C59.056 34.9148 60.0651 34.7195 60.8594 34.3289C61.6536 33.9383 62.2591 33.3588 62.6758 32.5906C63.1055 31.8224 63.3594 30.8653 63.4375 29.7195Z" fill="#070821"/>
</svg>
