<svg width="164" height="67" viewBox="0 0 164 67" fill="none" xmlns="http://www.w3.org/2000/svg">
<circle cx="33.486" cy="33.486" r="33.486" fill="#01BF71"/>
<path d="M40.2526 39.0349H45.5084C45.403 40.7576 44.9284 42.2869 44.0846 43.6228C43.2526 44.9587 42.0866 46.0017 40.5866 46.7517C39.0983 47.5017 37.3053 47.8767 35.2076 47.8767C33.567 47.8767 32.0963 47.5955 30.7955 47.033C29.4948 46.4587 28.3815 45.6384 27.4557 44.572C26.5416 43.5056 25.8444 42.2166 25.3639 40.7048C24.8834 39.1931 24.6432 37.4998 24.6432 35.6248V33.8494C24.6432 31.9744 24.8893 30.281 25.3815 28.7693C25.8854 27.2458 26.6002 25.9509 27.526 24.8845C28.4635 23.8181 29.5826 22.9978 30.8834 22.4236C32.1842 21.8494 33.6373 21.5623 35.2428 21.5623C37.3756 21.5623 39.1744 21.949 40.6393 22.7224C42.1159 23.4958 43.2584 24.5623 44.067 25.9216C44.8873 27.281 45.3795 28.8279 45.5436 30.5623H40.2701C40.2116 29.531 40.0065 28.658 39.6549 27.9431C39.3034 27.2166 38.7701 26.6716 38.0553 26.3083C37.3522 25.9333 36.4147 25.7458 35.2428 25.7458C34.3639 25.7458 33.5963 25.9099 32.9401 26.238C32.2838 26.5662 31.733 27.0642 31.2877 27.7322C30.8424 28.4001 30.5084 29.2439 30.2858 30.2634C30.0748 31.2712 29.9694 32.4548 29.9694 33.8142V35.6248C29.9694 36.949 30.069 38.115 30.2682 39.1228C30.4674 40.1189 30.7721 40.9626 31.1823 41.6541C31.6041 42.3337 32.1432 42.8494 32.7994 43.2009C33.4674 43.5408 34.2701 43.7107 35.2076 43.7107C36.3092 43.7107 37.2174 43.5349 37.9323 43.1833C38.6471 42.8318 39.192 42.3103 39.567 41.6189C39.9537 40.9275 40.1823 40.0662 40.2526 39.0349ZM58.9205 43.2361V34.7634C58.9205 34.1541 58.8209 33.6326 58.6217 33.199C58.4225 32.7537 58.1119 32.408 57.6901 32.1619C57.2799 31.9158 56.7467 31.7927 56.0905 31.7927C55.528 31.7927 55.0416 31.8923 54.6315 32.0916C54.2213 32.2791 53.9049 32.5544 53.6823 32.9177C53.4596 33.2693 53.3483 33.6853 53.3483 34.1658H48.2858C48.2858 33.3572 48.4733 32.5896 48.8483 31.863C49.2233 31.1365 49.7682 30.4978 50.483 29.947C51.1979 29.3845 52.0475 28.9451 53.0319 28.6287C54.028 28.3123 55.1412 28.1541 56.3717 28.1541C57.8483 28.1541 59.1608 28.4001 60.3092 28.8923C61.4576 29.3845 62.36 30.1228 63.0162 31.1072C63.6842 32.0916 64.0182 33.322 64.0182 34.7986V42.9373C64.0182 43.9802 64.0826 44.8357 64.2116 45.5037C64.3405 46.1599 64.528 46.7341 64.7741 47.2263V47.5251H59.6588C59.4127 47.0095 59.2252 46.365 59.0963 45.5916C58.9791 44.8064 58.9205 44.0212 58.9205 43.2361ZM59.5885 35.9412L59.6237 38.8064H56.7936C56.1256 38.8064 55.5455 38.8826 55.0534 39.0349C54.5612 39.1873 54.1569 39.4041 53.8405 39.6853C53.5241 39.9548 53.2897 40.2712 53.1373 40.6345C52.9967 40.9978 52.9264 41.3962 52.9264 41.8298C52.9264 42.2634 53.026 42.656 53.2252 43.0076C53.4244 43.3474 53.7116 43.6169 54.0866 43.8162C54.4616 44.0037 54.901 44.0974 55.4049 44.0974C56.1666 44.0974 56.8287 43.9451 57.3912 43.6404C57.9537 43.3357 58.3873 42.9607 58.692 42.5154C59.0084 42.0701 59.1725 41.6482 59.1842 41.2498L60.5201 43.3943C60.3326 43.8748 60.0748 44.3728 59.7467 44.8884C59.4303 45.4041 59.026 45.8904 58.5338 46.3474C58.0416 46.7927 57.4498 47.1619 56.7584 47.4548C56.067 47.7361 55.2467 47.8767 54.2975 47.8767C53.0905 47.8767 51.9948 47.6365 51.0104 47.156C50.0377 46.6638 49.2643 45.99 48.6901 45.1345C48.1276 44.2673 47.8463 43.283 47.8463 42.1814C47.8463 41.1853 48.0338 40.3005 48.4088 39.5271C48.7838 38.7537 49.3346 38.1033 50.0612 37.5759C50.7994 37.0369 51.7194 36.6326 52.8209 36.363C53.9225 36.0818 55.1998 35.9412 56.653 35.9412H59.5885ZM73.2643 20.5251V47.5251H68.1842V20.5251H73.2643ZM76.6393 38.2087V37.8396C76.6393 36.4451 76.8385 35.1619 77.2369 33.99C77.6354 32.8064 78.2155 31.781 78.9772 30.9138C79.7389 30.0466 80.6764 29.3728 81.7897 28.8923C82.903 28.4001 84.1803 28.1541 85.6217 28.1541C87.0631 28.1541 88.3463 28.4001 89.4713 28.8923C90.5963 29.3728 91.5397 30.0466 92.3014 30.9138C93.0748 31.781 93.6608 32.8064 94.0592 33.99C94.4576 35.1619 94.6569 36.4451 94.6569 37.8396V38.2087C94.6569 39.5916 94.4576 40.8748 94.0592 42.0583C93.6608 43.2302 93.0748 44.2556 92.3014 45.1345C91.5397 46.0017 90.6022 46.6755 89.4889 47.156C88.3756 47.6365 87.0983 47.8767 85.6569 47.8767C84.2155 47.8767 82.9323 47.6365 81.8073 47.156C80.694 46.6755 79.7506 46.0017 78.9772 45.1345C78.2155 44.2556 77.6354 43.2302 77.2369 42.0583C76.8385 40.8748 76.6393 39.5916 76.6393 38.2087ZM81.7018 37.8396V38.2087C81.7018 39.0056 81.7721 39.7498 81.9127 40.4412C82.0534 41.1326 82.276 41.7419 82.5807 42.2693C82.8971 42.7849 83.3073 43.1892 83.8112 43.4822C84.3151 43.7751 84.9303 43.9216 85.6569 43.9216C86.36 43.9216 86.9635 43.7751 87.4674 43.4822C87.9713 43.1892 88.3756 42.7849 88.6803 42.2693C88.985 41.7419 89.2076 41.1326 89.3483 40.4412C89.5006 39.7498 89.5768 39.0056 89.5768 38.2087V37.8396C89.5768 37.0662 89.5006 36.3396 89.3483 35.6599C89.2076 34.9685 88.9791 34.3591 88.6627 33.8318C88.358 33.2927 87.9537 32.8708 87.4498 32.5662C86.9459 32.2615 86.3366 32.1091 85.6217 32.1091C84.9069 32.1091 84.2975 32.2615 83.7936 32.5662C83.3014 32.8708 82.8971 33.2927 82.5807 33.8318C82.276 34.3591 82.0534 34.9685 81.9127 35.6599C81.7721 36.3396 81.7018 37.0662 81.7018 37.8396ZM102.831 32.6541V47.5251H97.7682V28.5056H102.532L102.831 32.6541ZM108.561 28.3826L108.473 33.0759C108.227 33.0408 107.928 33.0115 107.577 32.988C107.237 32.9529 106.926 32.9353 106.645 32.9353C105.93 32.9353 105.309 33.0291 104.782 33.2166C104.266 33.3923 103.833 33.656 103.481 34.0076C103.141 34.3591 102.883 34.7869 102.708 35.2908C102.544 35.7947 102.45 36.3689 102.426 37.0134L101.407 36.697C101.407 35.4666 101.53 34.3357 101.776 33.3044C102.022 32.2615 102.38 31.3533 102.848 30.5798C103.329 29.8064 103.915 29.2087 104.606 28.7869C105.297 28.365 106.089 28.1541 106.979 28.1541C107.26 28.1541 107.547 28.1775 107.84 28.2244C108.133 28.2595 108.374 28.3123 108.561 28.3826ZM116.296 28.5056V47.5251H111.215V28.5056H116.296ZM110.899 23.5486C110.899 22.8103 111.157 22.2009 111.672 21.7205C112.188 21.24 112.88 20.9998 113.747 20.9998C114.602 20.9998 115.288 21.24 115.803 21.7205C116.331 22.2009 116.594 22.8103 116.594 23.5486C116.594 24.2869 116.331 24.8962 115.803 25.3767C115.288 25.8572 114.602 26.0974 113.747 26.0974C112.88 26.0974 112.188 25.8572 111.672 25.3767C111.157 24.8962 110.899 24.2869 110.899 23.5486ZM129.233 47.8767C127.756 47.8767 126.432 47.6423 125.26 47.1736C124.089 46.6931 123.092 46.031 122.272 45.1873C121.464 44.3435 120.842 43.365 120.409 42.2517C119.975 41.1267 119.758 39.9314 119.758 38.6658V37.9626C119.758 36.5212 119.964 35.2029 120.374 34.0076C120.784 32.8123 121.37 31.7751 122.131 30.8962C122.905 30.0173 123.842 29.3435 124.944 28.8748C126.046 28.3943 127.288 28.1541 128.671 28.1541C130.018 28.1541 131.214 28.3767 132.256 28.822C133.299 29.2673 134.172 29.9001 134.876 30.7205C135.59 31.5408 136.13 32.5251 136.493 33.6736C136.856 34.8103 137.038 36.0759 137.038 37.4705V39.5798H121.921V36.2048H132.063V35.8181C132.063 35.115 131.934 34.488 131.676 33.9373C131.43 33.3748 131.055 32.9294 130.551 32.6013C130.047 32.2732 129.403 32.1091 128.618 32.1091C127.95 32.1091 127.376 32.2556 126.895 32.5486C126.415 32.8416 126.022 33.2517 125.717 33.7791C125.424 34.3064 125.202 34.9275 125.049 35.6423C124.909 36.3455 124.839 37.1189 124.839 37.9626V38.6658C124.839 39.4275 124.944 40.1306 125.155 40.7751C125.378 41.4197 125.688 41.9763 126.087 42.4451C126.497 42.9138 126.989 43.2771 127.563 43.5349C128.149 43.7927 128.811 43.9216 129.549 43.9216C130.464 43.9216 131.313 43.7458 132.098 43.3943C132.895 43.031 133.581 42.4861 134.155 41.7595L136.616 44.4314C136.217 45.0056 135.672 45.5564 134.981 46.0837C134.301 46.6111 133.481 47.0447 132.52 47.3845C131.559 47.7126 130.464 47.8767 129.233 47.8767ZM150.204 42.2693C150.204 41.906 150.098 41.5779 149.887 41.2849C149.676 40.9919 149.284 40.7224 148.71 40.4763C148.147 40.2185 147.333 39.9841 146.266 39.7732C145.305 39.5623 144.409 39.2986 143.577 38.9822C142.756 38.6541 142.042 38.2615 141.432 37.8044C140.835 37.3474 140.366 36.8083 140.026 36.1873C139.686 35.5544 139.516 34.8337 139.516 34.0251C139.516 33.2283 139.686 32.4783 140.026 31.7751C140.378 31.072 140.876 30.4509 141.52 29.9119C142.176 29.3611 142.973 28.9333 143.911 28.6287C144.86 28.3123 145.926 28.1541 147.11 28.1541C148.762 28.1541 150.18 28.4177 151.364 28.9451C152.559 29.4724 153.473 30.199 154.106 31.1248C154.751 32.0388 155.073 33.0818 155.073 34.2537H150.01C150.01 33.7615 149.905 33.322 149.694 32.9353C149.495 32.5369 149.178 32.2263 148.745 32.0037C148.323 31.7693 147.772 31.6521 147.092 31.6521C146.53 31.6521 146.044 31.7517 145.633 31.9509C145.223 32.1384 144.907 32.3962 144.684 32.7244C144.473 33.0408 144.368 33.3923 144.368 33.7791C144.368 34.072 144.426 34.3357 144.544 34.5701C144.672 34.7927 144.878 34.9978 145.159 35.1853C145.44 35.3728 145.803 35.5486 146.249 35.7126C146.706 35.865 147.268 36.0056 147.936 36.1345C149.307 36.4158 150.532 36.7849 151.61 37.2419C152.688 37.6873 153.544 38.2966 154.176 39.0701C154.809 39.8318 155.126 40.8337 155.126 42.0759C155.126 42.9197 154.938 43.6931 154.563 44.3962C154.188 45.0994 153.649 45.7146 152.946 46.2419C152.243 46.7576 151.399 47.1619 150.415 47.4548C149.442 47.7361 148.346 47.8767 147.128 47.8767C145.358 47.8767 143.858 47.5603 142.628 46.9275C141.409 46.2947 140.483 45.4919 139.85 44.5193C139.229 43.5349 138.919 42.5271 138.919 41.4958H143.717C143.741 42.1873 143.917 42.7439 144.245 43.1658C144.585 43.5876 145.012 43.8923 145.528 44.0798C146.055 44.2673 146.624 44.3611 147.233 44.3611C147.889 44.3611 148.434 44.2732 148.868 44.0974C149.301 43.9099 149.63 43.6638 149.852 43.3591C150.087 43.0427 150.204 42.6794 150.204 42.2693Z" fill="#070821"/>
</svg>
