<svg width="283" height="43" viewBox="0 0 283 43" fill="none" xmlns="http://www.w3.org/2000/svg">
<path d="M27.1396 10.6719V32H22.7598V10.6719H27.1396ZM33.7021 10.6719V14.1143H16.2998V10.6719H33.7021ZM50.4307 19.3584V22.7861H39.2979V19.3584H50.4307ZM40.6016 10.6719V32H36.207V10.6719H40.6016ZM53.5654 10.6719V32H49.1855V10.6719H53.5654ZM71.7002 28.5723V32H60.3477V28.5723H71.7002ZM61.7832 10.6719V32H57.3887V10.6719H61.7832ZM70.2207 19.3584V22.6982H60.3477V19.3584H70.2207ZM71.6855 10.6719V14.1143H60.3477V10.6719H71.6855Z" fill="#64668E"/>
<path d="M86.627 24.9248H91.0068C90.9189 26.3604 90.5234 27.6348 89.8203 28.748C89.127 29.8613 88.1553 30.7305 86.9053 31.3555C85.665 31.9805 84.1709 32.293 82.4229 32.293C81.0557 32.293 79.8301 32.0586 78.7461 31.5898C77.6621 31.1113 76.7344 30.4277 75.9629 29.5391C75.2012 28.6504 74.6201 27.5762 74.2197 26.3164C73.8193 25.0566 73.6191 23.6455 73.6191 22.083V20.6035C73.6191 19.041 73.8242 17.6299 74.2344 16.3701C74.6543 15.1006 75.25 14.0215 76.0215 13.1328C76.8027 12.2441 77.7354 11.5605 78.8193 11.082C79.9033 10.6035 81.1143 10.3643 82.4521 10.3643C84.2295 10.3643 85.7285 10.6865 86.9492 11.3311C88.1797 11.9756 89.1318 12.8643 89.8057 13.9971C90.4893 15.1299 90.8994 16.4189 91.0361 17.8643H86.6416C86.5928 17.0049 86.4219 16.2773 86.1289 15.6816C85.8359 15.0762 85.3916 14.6221 84.7959 14.3193C84.21 14.0068 83.4287 13.8506 82.4521 13.8506C81.7197 13.8506 81.0801 13.9873 80.5332 14.2607C79.9863 14.5342 79.5273 14.9492 79.1562 15.5059C78.7852 16.0625 78.5068 16.7656 78.3213 17.6152C78.1455 18.4551 78.0576 19.4414 78.0576 20.5742V22.083C78.0576 23.1865 78.1406 24.1582 78.3066 24.998C78.4727 25.8281 78.7266 26.5312 79.0684 27.1074C79.4199 27.6738 79.8691 28.1035 80.416 28.3965C80.9727 28.6797 81.6416 28.8213 82.4229 28.8213C83.3408 28.8213 84.0977 28.6748 84.6934 28.3818C85.2891 28.0889 85.7432 27.6543 86.0557 27.0781C86.3779 26.502 86.5684 25.7842 86.627 24.9248ZM102.564 14.3193L96.7637 32H92.0908L100.016 10.6719H102.989L102.564 14.3193ZM107.384 32L101.568 14.3193L101.1 10.6719H104.103L112.071 32H107.384ZM107.12 24.0605V27.5029H95.8555V24.0605H107.12ZM127.76 28.5723V32H117.022V28.5723H127.76ZM118.443 10.6719V32H114.049V10.6719H118.443ZM146.832 20.8379V21.8486C146.832 23.4697 146.612 24.9248 146.173 26.2139C145.733 27.5029 145.113 28.6016 144.312 29.5098C143.512 30.4082 142.555 31.0967 141.441 31.5752C140.338 32.0537 139.112 32.293 137.765 32.293C136.427 32.293 135.201 32.0537 134.088 31.5752C132.984 31.0967 132.027 30.4082 131.217 29.5098C130.406 28.6016 129.776 27.5029 129.327 26.2139C128.888 24.9248 128.668 23.4697 128.668 21.8486V20.8379C128.668 19.207 128.888 17.752 129.327 16.4727C129.767 15.1836 130.387 14.085 131.188 13.1768C131.998 12.2686 132.955 11.5752 134.059 11.0967C135.172 10.6182 136.397 10.3789 137.735 10.3789C139.083 10.3789 140.309 10.6182 141.412 11.0967C142.525 11.5752 143.482 12.2686 144.283 13.1768C145.094 14.085 145.719 15.1836 146.158 16.4727C146.607 17.752 146.832 19.207 146.832 20.8379ZM142.394 21.8486V20.8086C142.394 19.6758 142.291 18.6797 142.086 17.8203C141.881 16.9609 141.578 16.2383 141.178 15.6523C140.777 15.0664 140.289 14.627 139.713 14.334C139.137 14.0312 138.478 13.8799 137.735 13.8799C136.993 13.8799 136.334 14.0312 135.758 14.334C135.191 14.627 134.708 15.0664 134.308 15.6523C133.917 16.2383 133.619 16.9609 133.414 17.8203C133.209 18.6797 133.106 19.6758 133.106 20.8086V21.8486C133.106 22.9717 133.209 23.9678 133.414 24.8369C133.619 25.6963 133.922 26.4238 134.322 27.0195C134.723 27.6055 135.211 28.0498 135.787 28.3525C136.363 28.6553 137.022 28.8066 137.765 28.8066C138.507 28.8066 139.166 28.6553 139.742 28.3525C140.318 28.0498 140.802 27.6055 141.192 27.0195C141.583 26.4238 141.881 25.6963 142.086 24.8369C142.291 23.9678 142.394 22.9717 142.394 21.8486ZM149.996 10.6719H157.95C159.581 10.6719 160.982 10.916 162.154 11.4043C163.336 11.8926 164.244 12.6152 164.879 13.5723C165.514 14.5293 165.831 15.7061 165.831 17.1025C165.831 18.2451 165.636 19.2266 165.245 20.0469C164.864 20.8574 164.322 21.5361 163.619 22.083C162.926 22.6201 162.11 23.0498 161.173 23.3721L159.781 24.1045H152.867L152.838 20.6768H157.979C158.751 20.6768 159.391 20.54 159.898 20.2666C160.406 19.9932 160.787 19.6123 161.041 19.124C161.305 18.6357 161.437 18.0693 161.437 17.4248C161.437 16.7412 161.31 16.1504 161.056 15.6523C160.802 15.1543 160.416 14.7734 159.898 14.5098C159.381 14.2461 158.731 14.1143 157.95 14.1143H154.391V32H149.996V10.6719ZM161.92 32L157.057 22.4932L161.7 22.4639L166.622 31.7949V32H161.92ZM173.888 10.6719V32H169.508V10.6719H173.888ZM192.315 28.5723V32H180.963V28.5723H192.315ZM182.398 10.6719V32H178.004V10.6719H182.398ZM190.836 19.3584V22.6982H180.963V19.3584H190.836ZM192.301 10.6719V14.1143H180.963V10.6719H192.301ZM205.982 26.4189C205.982 26.0381 205.924 25.6963 205.807 25.3936C205.699 25.0811 205.494 24.7979 205.191 24.5439C204.889 24.2803 204.464 24.0215 203.917 23.7676C203.37 23.5137 202.662 23.25 201.793 22.9766C200.826 22.6641 199.908 22.3125 199.039 21.9219C198.18 21.5312 197.418 21.0771 196.754 20.5596C196.1 20.0322 195.582 19.4219 195.201 18.7285C194.83 18.0352 194.645 17.2295 194.645 16.3115C194.645 15.4229 194.84 14.6172 195.23 13.8945C195.621 13.1621 196.168 12.5371 196.871 12.0195C197.574 11.4922 198.404 11.0869 199.361 10.8037C200.328 10.5205 201.388 10.3789 202.54 10.3789C204.112 10.3789 205.484 10.6621 206.656 11.2285C207.828 11.7949 208.736 12.5713 209.381 13.5576C210.035 14.5439 210.362 15.6719 210.362 16.9414H205.997C205.997 16.3164 205.865 15.7695 205.602 15.3008C205.348 14.8223 204.957 14.4463 204.43 14.1729C203.912 13.8994 203.258 13.7627 202.467 13.7627C201.705 13.7627 201.07 13.8799 200.562 14.1143C200.055 14.3389 199.674 14.6465 199.42 15.0371C199.166 15.418 199.039 15.8477 199.039 16.3262C199.039 16.6875 199.127 17.0146 199.303 17.3076C199.488 17.6006 199.762 17.874 200.123 18.1279C200.484 18.3818 200.929 18.6211 201.456 18.8457C201.983 19.0703 202.594 19.29 203.287 19.5049C204.449 19.8564 205.47 20.252 206.349 20.6914C207.237 21.1309 207.979 21.624 208.575 22.1709C209.171 22.7178 209.62 23.3379 209.923 24.0312C210.226 24.7246 210.377 25.5107 210.377 26.3896C210.377 27.3174 210.196 28.1475 209.835 28.8799C209.474 29.6123 208.951 30.2324 208.268 30.7402C207.584 31.248 206.769 31.6338 205.821 31.8975C204.874 32.1611 203.814 32.293 202.643 32.293C201.588 32.293 200.548 32.1562 199.522 31.8828C198.497 31.5996 197.564 31.1748 196.725 30.6084C195.895 30.042 195.23 29.3193 194.732 28.4404C194.234 27.5615 193.985 26.5215 193.985 25.3203H198.395C198.395 25.9844 198.497 26.5459 198.702 27.0049C198.907 27.4639 199.195 27.835 199.566 28.1182C199.947 28.4014 200.396 28.6064 200.914 28.7334C201.441 28.8604 202.018 28.9238 202.643 28.9238C203.404 28.9238 204.029 28.8164 204.518 28.6016C205.016 28.3867 205.382 28.0889 205.616 27.708C205.86 27.3271 205.982 26.8975 205.982 26.4189Z" fill="#16194F"/>
<path d="M227.076 28.5723V32H216.339V28.5723H227.076ZM217.76 10.6719V32H213.365V10.6719H217.76ZM238.561 14.3193L232.76 32H228.087L236.012 10.6719H238.985L238.561 14.3193ZM243.38 32L237.564 14.3193L237.096 10.6719H240.099L248.067 32H243.38ZM243.116 24.0605V27.5029H231.852V24.0605H243.116ZM258.395 22.6396H252.916L252.887 19.6221H257.486C258.297 19.6221 258.961 19.5195 259.479 19.3145C259.996 19.0996 260.382 18.792 260.636 18.3916C260.899 17.9814 261.031 17.4834 261.031 16.8975C261.031 16.2334 260.904 15.6963 260.65 15.2861C260.406 14.876 260.021 14.5781 259.493 14.3926C258.976 14.207 258.307 14.1143 257.486 14.1143H254.439V32H250.045V10.6719H257.486C258.727 10.6719 259.835 10.7891 260.812 11.0234C261.798 11.2578 262.633 11.6143 263.316 12.0928C264 12.5713 264.522 13.1768 264.884 13.9092C265.245 14.6318 265.426 15.4912 265.426 16.4873C265.426 17.3662 265.226 18.1768 264.825 18.9189C264.435 19.6611 263.814 20.2666 262.965 20.7354C262.125 21.2041 261.026 21.4629 259.669 21.5117L258.395 22.6396ZM258.204 32H251.715L253.429 28.5723H258.204C258.976 28.5723 259.605 28.4502 260.094 28.2061C260.582 27.9521 260.943 27.6104 261.178 27.1807C261.412 26.751 261.529 26.2578 261.529 25.7012C261.529 25.0762 261.422 24.5342 261.207 24.0752C261.002 23.6162 260.67 23.2646 260.211 23.0205C259.752 22.7666 259.146 22.6396 258.395 22.6396H254.161L254.19 19.6221H259.464L260.475 20.8086C261.773 20.7891 262.818 21.0186 263.609 21.4971C264.41 21.9658 264.991 22.5762 265.353 23.3281C265.724 24.0801 265.909 24.8857 265.909 25.7451C265.909 27.1123 265.611 28.2646 265.016 29.2021C264.42 30.1299 263.546 30.8281 262.394 31.2969C261.251 31.7656 259.854 32 258.204 32Z" fill="#64668E"/>
</svg>
