<svg width="160" height="67" viewBox="0 0 160 67" fill="none" xmlns="http://www.w3.org/2000/svg">
<circle cx="33.486" cy="33.486" r="33.486" fill="#4393FB"/>
<path d="M33.5122 46.8491C30.9442 46.8491 28.7482 46.3211 26.9242 45.2651C25.1002 44.2091 23.6962 42.7091 22.7122 40.7651C21.7522 38.7971 21.2722 36.4811 21.2722 33.8171C21.2722 31.1531 21.7522 28.8491 22.7122 26.9051C23.6962 24.9611 25.1002 23.4611 26.9242 22.4051C28.7482 21.3491 30.9442 20.8211 33.5122 20.8211C34.9282 20.8211 36.2842 21.0131 37.5802 21.3971C38.9002 21.7811 40.0402 22.3331 41.0002 23.0531C41.5282 23.3891 41.8282 23.7971 41.9002 24.2771C41.9962 24.7331 41.9242 25.1531 41.6842 25.5371C41.4682 25.8971 41.1442 26.1371 40.7122 26.2571C40.2802 26.3771 39.8002 26.2571 39.2722 25.8971C38.4562 25.2971 37.5682 24.8531 36.6082 24.5651C35.6722 24.2771 34.6762 24.1331 33.6202 24.1331C30.8842 24.1331 28.7962 24.9731 27.3562 26.6531C25.9162 28.3331 25.1962 30.7211 25.1962 33.8171C25.1962 36.9131 25.9162 39.3131 27.3562 41.0171C28.7962 42.6971 30.8842 43.5371 33.6202 43.5371C34.6762 43.5371 35.6842 43.3931 36.6442 43.1051C37.6282 42.8171 38.5522 42.3611 39.4162 41.7371C39.9442 41.4011 40.4122 41.2931 40.8202 41.4131C41.2282 41.5091 41.5402 41.7371 41.7562 42.0971C41.9722 42.4571 42.0442 42.8651 41.9722 43.3211C41.9002 43.7531 41.6482 44.1251 41.2162 44.4371C40.2082 45.2291 39.0322 45.8291 37.6882 46.2371C36.3682 46.6451 34.9762 46.8491 33.5122 46.8491ZM51.0867 46.8491C49.8627 46.8491 48.7707 46.6091 47.8107 46.1291C46.8507 45.6491 46.0827 45.0011 45.5067 44.1851C44.9547 43.3691 44.6787 42.4451 44.6787 41.4131C44.6787 40.1171 45.0027 39.0971 45.6507 38.3531C46.3227 37.6091 47.4147 37.0691 48.9267 36.7331C50.4627 36.3971 52.5267 36.2291 55.1187 36.2291H56.3427V35.2931C56.3427 33.9251 56.0547 32.9411 55.4787 32.3411C54.9027 31.7411 53.9547 31.4411 52.6347 31.4411C51.8667 31.4411 51.0627 31.5371 50.2227 31.7291C49.4067 31.9211 48.5547 32.2451 47.6667 32.7011C47.1627 32.9411 46.7427 32.9771 46.4067 32.8091C46.0947 32.6411 45.8787 32.3771 45.7587 32.0171C45.6387 31.6571 45.6507 31.2851 45.7947 30.9011C45.9387 30.5171 46.2387 30.2291 46.6947 30.0371C47.7507 29.5571 48.7947 29.2091 49.8267 28.9931C50.8587 28.7531 51.8307 28.6331 52.7427 28.6331C55.1427 28.6331 56.9187 29.2091 58.0707 30.3611C59.2227 31.4891 59.7987 33.2651 59.7987 35.6891V44.9411C59.7987 46.1651 59.2347 46.7771 58.1067 46.7771C56.9547 46.7771 56.3787 46.1651 56.3787 44.9411V43.6091C55.9467 44.6171 55.2747 45.4091 54.3627 45.9851C53.4507 46.5611 52.3587 46.8491 51.0867 46.8491ZM51.8067 44.2571C53.1027 44.2571 54.1827 43.8011 55.0467 42.8891C55.9107 41.9771 56.3427 40.8251 56.3427 39.4331V38.4611H55.1547C53.4027 38.4611 52.0227 38.5451 51.0147 38.7131C50.0307 38.8811 49.3227 39.1691 48.8907 39.5771C48.4827 39.9611 48.2787 40.5011 48.2787 41.1971C48.2787 42.1091 48.5907 42.8531 49.2147 43.4291C49.8387 43.9811 50.7027 44.2571 51.8067 44.2571ZM70.4586 46.8491C68.5866 46.8491 67.1706 46.3091 66.2106 45.2291C65.2746 44.1491 64.8066 42.5651 64.8066 40.4771V22.7291C64.8066 21.5051 65.4066 20.8931 66.6066 20.8931C67.8306 20.8931 68.4426 21.5051 68.4426 22.7291V40.2611C68.4426 42.6371 69.4026 43.8251 71.3226 43.8251C71.5386 43.8251 71.7306 43.8131 71.8986 43.7891C72.0666 43.7651 72.2346 43.7531 72.4026 43.7531C72.6906 43.7291 72.8946 43.8131 73.0146 44.0051C73.1346 44.1731 73.1946 44.5331 73.1946 45.0851C73.1946 46.0691 72.7386 46.6331 71.8266 46.7771C71.5866 46.8011 71.3466 46.8131 71.1066 46.8131C70.8906 46.8371 70.6746 46.8491 70.4586 46.8491ZM83.2667 46.8491C81.4907 46.8491 79.9547 46.4771 78.6587 45.7331C77.3627 44.9891 76.3547 43.9451 75.6347 42.6011C74.9387 41.2331 74.5907 39.6131 74.5907 37.7411C74.5907 35.8691 74.9387 34.2611 75.6347 32.9171C76.3547 31.5491 77.3627 30.4931 78.6587 29.7491C79.9547 29.0051 81.4907 28.6331 83.2667 28.6331C84.9947 28.6331 86.5067 29.0051 87.8027 29.7491C89.0987 30.4931 90.1067 31.5491 90.8267 32.9171C91.5467 34.2611 91.9067 35.8691 91.9067 37.7411C91.9067 39.6131 91.5467 41.2331 90.8267 42.6011C90.1067 43.9451 89.0987 44.9891 87.8027 45.7331C86.5067 46.4771 84.9947 46.8491 83.2667 46.8491ZM83.2667 44.0411C84.7547 44.0411 85.9547 43.5011 86.8667 42.4211C87.7787 41.3411 88.2347 39.7811 88.2347 37.7411C88.2347 35.7011 87.7787 34.1531 86.8667 33.0971C85.9547 32.0171 84.7547 31.4771 83.2667 31.4771C81.7547 31.4771 80.5427 32.0171 79.6307 33.0971C78.7187 34.1531 78.2627 35.7011 78.2627 37.7411C78.2627 39.7811 78.7187 41.3411 79.6307 42.4211C80.5427 43.5011 81.7547 44.0411 83.2667 44.0411ZM97.8262 46.7771C96.6022 46.7771 95.9902 46.1651 95.9902 44.9411V30.5411C95.9902 29.3171 96.5782 28.7051 97.7542 28.7051C98.9302 28.7051 99.5182 29.3171 99.5182 30.5411V32.0891C99.9982 31.0091 100.718 30.1811 101.678 29.6051C102.662 29.0291 103.85 28.6931 105.242 28.5971C106.13 28.5251 106.61 29.0051 106.682 30.0371C106.778 31.0931 106.262 31.6691 105.134 31.7651L104.45 31.8371C101.258 32.1491 99.6622 33.7931 99.6622 36.7691V44.9411C99.6622 46.1651 99.0502 46.7771 97.8262 46.7771ZM111.22 25.0331C110.5 25.0331 109.936 24.8531 109.528 24.4931C109.144 24.1331 108.952 23.6291 108.952 22.9811C108.952 21.6131 109.708 20.9291 111.22 20.9291C112.732 20.9291 113.488 21.6131 113.488 22.9811C113.488 24.3491 112.732 25.0331 111.22 25.0331ZM111.22 46.7411C110.02 46.7411 109.42 46.0811 109.42 44.7611V30.7211C109.42 29.4251 110.02 28.7771 111.22 28.7771C112.444 28.7771 113.056 29.4251 113.056 30.7211V44.7611C113.056 46.0811 112.444 46.7411 111.22 46.7411ZM126.418 46.8491C123.538 46.8491 121.27 46.0451 119.614 44.4371C117.958 42.8051 117.13 40.5851 117.13 37.7771C117.13 35.9771 117.49 34.3931 118.21 33.0251C118.954 31.6331 119.974 30.5531 121.27 29.7851C122.566 29.0171 124.054 28.6331 125.734 28.6331C128.158 28.6331 130.066 29.4131 131.458 30.9731C132.85 32.5091 133.546 34.6331 133.546 37.3451C133.546 38.1611 133.066 38.5691 132.106 38.5691H120.658C120.922 42.2171 122.854 44.0411 126.454 44.0411C127.174 44.0411 127.93 43.9571 128.722 43.7891C129.514 43.5971 130.282 43.2611 131.026 42.7811C131.53 42.4931 131.962 42.3971 132.322 42.4931C132.706 42.5651 132.982 42.7691 133.15 43.1051C133.318 43.4171 133.342 43.7771 133.222 44.1851C133.126 44.5691 132.85 44.9051 132.394 45.1931C131.578 45.7451 130.618 46.1651 129.514 46.4531C128.434 46.7171 127.402 46.8491 126.418 46.8491ZM125.878 31.1891C124.366 31.1891 123.166 31.6571 122.278 32.5931C121.39 33.5291 120.85 34.7771 120.658 36.3371H130.486C130.414 34.7051 129.982 33.4451 129.19 32.5571C128.398 31.6451 127.294 31.1891 125.878 31.1891ZM143.666 46.8491C142.61 46.8491 141.518 46.7291 140.39 46.4891C139.262 46.2491 138.242 45.8411 137.33 45.2651C136.922 45.0251 136.67 44.7251 136.574 44.3651C136.478 44.0051 136.502 43.6691 136.646 43.3571C136.79 43.0451 137.018 42.8291 137.33 42.7091C137.666 42.5651 138.038 42.6011 138.446 42.8171C139.382 43.3211 140.282 43.6811 141.146 43.8971C142.01 44.1131 142.862 44.2211 143.702 44.2211C144.974 44.2211 145.934 43.9931 146.582 43.5371C147.23 43.0811 147.554 42.4691 147.554 41.7011C147.554 41.0771 147.338 40.5971 146.906 40.2611C146.474 39.9011 145.826 39.6251 144.962 39.4331L141.542 38.7491C138.518 38.1251 137.006 36.5651 137.006 34.0691C137.006 32.4131 137.666 31.0931 138.986 30.1091C140.306 29.1251 142.034 28.6331 144.17 28.6331C146.33 28.6331 148.19 29.1611 149.75 30.2171C150.134 30.4571 150.362 30.7571 150.434 31.1171C150.506 31.4531 150.458 31.7771 150.29 32.0891C150.122 32.3771 149.87 32.5811 149.534 32.7011C149.222 32.8211 148.85 32.7731 148.418 32.5571C147.698 32.1251 146.978 31.8131 146.258 31.6211C145.538 31.4051 144.842 31.2971 144.17 31.2971C142.922 31.2971 141.974 31.5371 141.326 32.0171C140.678 32.4731 140.354 33.0971 140.354 33.8891C140.354 35.0891 141.146 35.8571 142.73 36.1931L146.15 36.8771C147.71 37.1891 148.886 37.7171 149.678 38.4611C150.494 39.2051 150.902 40.2131 150.902 41.4851C150.902 43.1651 150.242 44.4851 148.922 45.4451C147.602 46.3811 145.85 46.8491 143.666 46.8491Z" fill="#16194F"/>
</svg>
