<svg width="760" height="517" viewBox="0 0 760 517" fill="none" xmlns="http://www.w3.org/2000/svg">
<g clip-path="url(#clip0_62_2)">
<path d="M42.4198 460.617L41.2219 438.183C28.734 432.624 14.8055 429.687 0.645752 429.628C20.1338 442.899 17.6983 468.479 30.9108 486.325C35.0828 491.865 40.6981 496.551 47.3404 500.038C53.9827 503.524 61.4818 505.721 69.2821 506.465L85.5903 514.781C87.828 504.391 87.3347 493.72 84.1443 483.503C80.9537 473.287 75.1419 463.768 67.1092 455.603C62.5484 451.059 57.3187 447.012 51.5437 443.557C47.6378 452.134 42.4198 460.617 42.4198 460.617Z" fill="#F2F2F2"/>
<path d="M77.0021 503L87.8427 502.999L93 462H77L77.0021 503Z" fill="#9E616A"/>
<path d="M74 499.616H77.1426L89.4114 495L95.9872 499.615H95.988C99.7042 499.616 103.268 500.98 105.896 503.411C108.523 505.843 110 509.14 110 512.578V512.999L74.0007 513L74 499.616Z" fill="#2F2E41"/>
<path d="M128.002 503L138.843 502.999L144 462H128L128.002 503Z" fill="#9E616A"/>
<path d="M125 499.616H128.143L140.412 495L146.987 499.615H146.988C150.704 499.616 154.267 500.98 156.895 503.411C159.523 505.843 160.999 509.14 161 512.578V512.999L125.001 513L125 499.616Z" fill="#2F2E41"/>
<path d="M137.217 280L51 282.164L52.4994 322.577C52.4994 322.577 51 333.402 53.9989 336.288C56.9977 339.175 58.4972 339.175 56.9977 344.227C55.4983 349.279 63.4204 357.529 62.4582 358.455C61.496 359.381 59.2468 364.433 59.2468 364.433L66.744 405.567C66.744 405.567 71.9919 477.011 73.4914 478.454C74.9908 479.897 76.4902 478.454 74.9908 482.062C73.4914 485.671 71.9919 484.227 73.4914 485.671C74.8196 487.048 76.0708 488.494 77.24 490H95.3659C95.3659 490 96.7326 482.784 96.7326 482.062C96.7326 481.34 98.232 477.011 98.232 476.288C98.232 475.567 96.9067 474.291 96.9067 474.291C96.4488 472.824 96.1393 471.318 95.9828 469.794C95.9828 468.351 91.4845 412.783 91.4845 412.783L100.481 340.619L122.223 411.34C122.223 411.34 122.223 473.402 123.723 474.846C125.222 476.288 125.222 475.567 124.472 478.454C123.723 481.34 120.724 480.619 122.972 482.784C125.222 484.948 125.971 481.34 125.222 484.948L124.472 488.557L146.963 488.866C146.963 488.866 149.962 482.784 148.463 480.619C146.963 478.454 147.053 479.045 148.882 475.502C150.712 471.959 151.462 471.238 150.711 470.515C149.962 469.794 149.962 465.956 149.962 465.956L146.214 396.907C146.214 396.907 145.464 324.021 145.464 321.855C145.407 320.741 145.621 319.63 146.087 318.609V315.67L143.215 305.257L137.217 280Z" fill="#2F2E41"/>
<path d="M234.485 122.054C234.071 123.18 233.409 124.202 232.547 125.05C231.685 125.898 230.643 126.551 229.495 126.963C228.346 127.375 227.119 127.536 225.901 127.434C224.682 127.332 223.5 126.972 222.439 126.375L185.033 157L183 142.031L219.587 114.661C220.73 112.986 222.461 111.779 224.453 111.268C226.445 110.758 228.56 110.98 230.396 111.891C232.233 112.802 233.663 114.34 234.417 116.214C235.17 118.087 235.195 120.165 234.485 122.054Z" fill="#9E616A"/>
<path d="M69.5001 135C82.4786 135 93 124.927 93 112.501C93 100.074 82.4786 90 69.5001 90C56.5214 90 46 100.074 46 112.501C46 124.927 56.5214 135 69.5001 135Z" fill="#9E616A"/>
<path d="M88.3383 89.6143C86.157 84.5823 76.8086 81.5946 62.0161 82.0446C47.2234 82.4946 44.6329 99.5678 44.6329 99.5678C36.4851 106.917 49.6395 129.867 51.9217 126.702C54.2039 123.538 58.0356 126.529 58.0356 126.529L54.384 106.65C58.2402 108.086 62.3875 109.051 66.0145 107.377L60.0049 104.267C64.9856 104.867 69.9661 105.467 74.9469 106.067L68.7848 101.478C68.9342 101.431 69.0835 101.381 69.233 101.333C71.7043 102.364 74.3507 102.945 77.0397 103.048C80.1812 103.025 83.52 101.6 84.8364 98.8396C85.1864 98.0815 85.376 97.2631 85.3939 96.433C89.7256 97.7941 92 102.705 92 102.705C91.1777 98.2464 89.9524 93.8659 88.3383 89.6143Z" fill="#2F2E41"/>
<path d="M88.2933 135.108C83.1056 135.108 79.7647 135.799 71.6926 137.11C56.7934 139.531 65.7163 153.185 65.7163 153.185C65.7163 153.185 66.3907 152.855 64.5646 153.185C62.7385 153.516 56.5134 158.709 56.5134 158.709L45.3804 168.245C28.6032 180.944 32.3593 200.757 32.3593 200.757L56.8245 224.502L46.1068 272.144C46.1068 272.144 50.6615 279.218 48.3063 282.39C45.9509 285.563 69.0572 284.652 69.0572 284.652C85.0043 291.506 141.187 285.713 141.187 285.713C140.409 283.751 132.887 268.551 132.887 268.551C136.155 263.108 133.042 255.243 133.042 255.243C133.042 255.243 129.795 218.038 127.72 212.895C125.644 207.751 133.033 179.883 137.888 180.183C142.743 180.483 174.108 165.053 174.108 165.053C174.108 165.053 173.32 163.842 183.674 159.76C189.623 157.505 195.075 154.188 199.746 149.983L204 141.788C201.956 142.548 195.056 130 195.056 130L192.047 131.106L190.304 130.62C190.304 130.62 176.702 134.353 173.922 137.075C171.141 139.796 170.207 139.036 167.696 139.646C165.185 140.257 164.874 141.958 164.086 141.768C163.297 141.578 161.896 143.879 160.797 143.579C159.697 143.279 157.342 144.49 155.775 144.79C154.208 145.09 143.075 149.633 143.075 149.633C136.186 146.271 117.51 147.632 117.51 147.632C117.51 147.632 111.399 144.159 109.667 147.632C109.2 148.617 108.452 149.455 107.509 150.045C106.566 150.636 105.468 150.954 104.344 150.964L96.8946 147.892C96.4616 149.416 88.3359 133.528 88.2933 135.108Z" fill="#01BF71"/>
<path d="M52.5312 322.243C51.7322 321.363 51.1396 320.321 50.7952 319.19C50.4508 318.061 50.3628 316.87 50.5377 315.703C50.7125 314.537 51.1459 313.421 51.8073 312.437C52.4687 311.451 53.3419 310.621 54.3655 310.004L44 270L58.1716 275.332L66.0476 313.107C66.9904 314.864 67.244 316.899 66.7603 318.827C66.2766 320.756 65.0891 322.443 63.4231 323.569C61.7571 324.695 59.7281 325.183 57.7207 324.938C55.7132 324.693 53.8668 323.735 52.5312 322.243Z" fill="#9E616A"/>
<path d="M33.5183 194L32.2412 209.969C32.2412 209.969 30.6537 227.512 31.0694 230.756C31.4851 234 32.2591 253.811 32.2591 253.811L45.7176 280L60.9668 276L60.0543 263.715L60.9668 275L63 265L57.917 248L60.9668 242L59.4288 221.859L33.5183 194Z" fill="#01BF71"/>
<path d="M494.975 403H435.025C433.429 402.998 431.897 402.402 430.766 401.342C429.637 400.283 429.002 398.846 429 397.348V348.652C429.002 347.154 429.637 345.717 430.766 344.658C431.897 343.598 433.429 343.002 435.025 343H494.975C496.571 343.002 498.103 343.598 499.234 344.658C500.363 345.717 500.998 347.154 501 348.652V397.348C500.998 398.846 500.363 400.283 499.234 401.342C498.103 402.402 496.571 402.998 494.975 403Z" fill="#F2F2F2"/>
<path d="M494.975 341H435.025C433.429 340.998 431.897 340.382 430.766 339.287C429.637 338.193 429.002 336.708 429 335.16V284.84C429.002 283.292 429.637 281.807 430.766 280.713C431.897 279.618 433.429 279.002 435.025 279H494.975C496.571 279.002 498.103 279.618 499.234 280.713C500.363 281.807 500.998 283.292 501 284.84V335.16C500.998 336.708 500.363 338.193 499.234 339.287C498.103 340.382 496.571 340.998 494.975 341Z" fill="#F2F2F2"/>
<path d="M494.975 467H435.025C433.429 466.998 431.897 466.382 430.766 465.287C429.637 464.193 429.002 462.708 429 461.16V410.84C429.002 409.292 429.637 407.807 430.766 406.713C431.897 405.618 433.429 405.002 435.025 405H494.975C496.571 405.002 498.103 405.618 499.234 406.713C500.363 407.807 500.998 409.292 501 410.84V461.16C500.998 462.708 500.363 464.193 499.234 465.287C498.103 466.382 496.571 466.998 494.975 467Z" fill="#F2F2F2"/>
<path d="M419.974 467H360.026C358.428 466.998 356.897 466.382 355.767 465.287C354.637 464.193 354.002 462.708 354 461.16V410.84C354.002 409.292 354.637 407.807 355.767 406.713C356.897 405.618 358.428 405.002 360.026 405H419.974C421.572 405.002 423.103 405.618 424.233 406.713C425.363 407.807 425.998 409.292 426 410.84V461.16C425.998 462.708 425.363 464.193 424.233 465.287C423.103 466.382 421.572 466.998 419.974 467Z" fill="#F2F2F2"/>
<path d="M585.858 341H509.142C507.514 340.998 505.952 340.382 504.801 339.287C503.649 338.193 503.002 336.708 503 335.16V284.84C503.002 283.292 503.649 281.807 504.801 280.713C505.952 279.618 507.514 279.002 509.142 279H585.858C587.486 279.002 589.048 279.618 590.199 280.713C591.351 281.807 591.998 283.292 592 284.84V335.16C591.998 336.708 591.351 338.193 590.199 339.287C589.048 340.382 587.486 340.998 585.858 341Z" fill="#F2F2F2"/>
<path d="M276.302 276.611V276.424H279.128V276.611H351.338V276.424H354.163V276.611H426.372V277H429.198V276.611H501.408V277H504.233V276.611H592V87.687C592 83.3945 591.109 79.144 589.375 75.1782C587.642 71.2125 585.103 67.609 581.9 64.5738C578.698 61.5385 574.898 59.1308 570.714 57.4881C566.53 55.8455 562.046 55 557.519 55H221.481C212.336 55 203.566 58.4438 197.1 64.5738C190.633 70.7038 187 79.0178 187 87.687V276.611H276.302Z" fill="#E6E6E6"/>
<path d="M585.858 343H509.142C505.756 343 503 348.24 503 354.682V460.999C503.002 462.231 503.427 463.43 504.212 464.42C504.997 465.409 506.101 466.137 507.362 466.495C507.893 466.816 508.51 466.991 509.142 467H585.858C586.49 466.991 587.107 466.816 587.638 466.495C588.899 466.137 590.003 465.409 590.788 464.42C591.573 463.43 591.998 462.231 592 460.999V354.682C592 348.24 589.244 343 585.858 343Z" fill="#F2F2F2"/>
<path d="M270.826 467H192.174C190.537 466.998 188.968 466.382 187.81 465.287C186.653 464.193 186.002 462.708 186 461.16V410.84C186.002 409.292 186.653 407.807 187.81 406.713C188.968 405.618 190.537 405.002 192.174 405H270.826C272.463 405.002 274.032 405.618 275.19 406.713C276.347 407.807 276.998 409.292 277 410.84V461.16C276.998 462.708 276.347 464.193 275.19 465.287C274.032 466.382 272.463 466.998 270.826 467Z" fill="#F2F2F2"/>
<path d="M270.826 403H192.174C190.537 402.998 188.968 402.402 187.81 401.342C186.653 400.283 186.002 398.846 186 397.348V348.652C186.002 347.154 186.653 345.717 187.81 344.658C188.968 343.598 190.537 343.002 192.174 343H270.826C272.463 343.002 274.032 343.598 275.19 344.658C276.347 345.717 276.998 347.154 277 348.652V397.348C276.998 398.846 276.347 400.283 275.19 401.342C274.032 402.402 272.463 402.998 270.826 403Z" fill="#F2F2F2"/>
<path d="M504.233 470.1V469H501.407V470.1H429.198V470.795H426.372V470.1H354.163V470.795H351.338V470.1H279.128V470.795H276.302V470.1H187V480.136C187 488.852 190.633 497.211 197.1 503.375C203.566 509.537 212.336 513 221.481 513H557.519C566.664 513 575.434 509.537 581.9 503.375C588.367 497.211 592 488.852 592 480.136V470.1H504.233Z" fill="#E6E6E6"/>
<path d="M270.826 341H192.174C190.537 340.998 188.968 340.382 187.81 339.287C186.653 338.193 186.002 336.708 186 335.16V284.84C186.002 283.292 186.653 281.807 187.81 280.713C188.968 279.618 190.537 279.002 192.174 279H270.826C272.463 279.002 274.032 279.618 275.19 280.713C276.347 281.807 276.998 283.292 277 284.84V335.16C276.998 336.708 276.347 338.193 275.19 339.287C274.032 340.382 272.463 340.998 270.826 341Z" fill="#F2F2F2"/>
<path d="M345.807 403H284.193C282.552 402.998 280.977 402.402 279.816 401.342C278.655 400.283 278.002 398.846 278 397.348V348.652C278.002 347.154 278.655 345.717 279.816 344.658C280.977 343.598 282.552 343.002 284.193 343H345.807C347.448 343.002 349.023 343.598 350.184 344.658C351.345 345.717 351.998 347.154 352 348.652V397.348C351.998 398.846 351.345 400.283 350.184 401.342C349.023 402.402 347.448 402.998 345.807 403Z" fill="#F2F2F2"/>
<path d="M345.807 467H284.193C282.552 466.998 280.977 466.382 279.816 465.287C278.655 464.193 278.002 462.708 278 461.16V410.84C278.002 409.292 278.655 407.807 279.816 406.713C280.977 405.618 282.552 405.002 284.193 405H345.807C347.448 405.002 349.023 405.618 350.184 406.713C351.345 407.807 351.998 409.292 352 410.84V461.16C351.998 462.708 351.345 464.193 350.184 465.287C349.023 466.382 347.448 466.998 345.807 467Z" fill="#F2F2F2"/>
<path d="M419.974 341H360.026C358.428 340.998 356.897 340.382 355.767 339.287C354.637 338.193 354.002 336.708 354 335.16V284.84C354.002 283.292 354.637 281.807 355.767 280.713C356.897 279.618 358.428 279.002 360.026 279H419.974C421.572 279.002 423.103 279.618 424.233 280.713C425.363 281.807 425.998 283.292 426 284.84V335.16C425.998 336.708 425.363 338.193 424.233 339.287C423.103 340.382 421.572 340.998 419.974 341Z" fill="#F2F2F2"/>
<path d="M419.974 403H360.026C358.428 402.998 356.897 402.402 355.767 401.342C354.637 400.283 354.002 398.846 354 397.348V348.652C354.002 347.154 354.637 345.717 355.767 344.658C356.897 343.598 358.428 343.002 360.026 343H419.974C421.572 343.002 423.103 343.598 424.233 344.658C425.363 345.717 425.998 347.154 426 348.652V397.348C425.998 398.846 425.363 400.283 424.233 401.342C423.103 402.402 421.572 402.998 419.974 403Z" fill="#F2F2F2"/>
<path d="M345.807 341H284.193C282.552 340.998 280.977 340.382 279.816 339.287C278.655 338.193 278.002 336.708 278 335.16V284.84C278.002 283.292 278.655 281.807 279.816 280.713C280.977 279.618 282.552 279.002 284.193 279H345.807C347.448 279.002 349.023 279.618 350.184 280.713C351.345 281.807 351.998 283.292 352 284.84V335.16C351.998 336.708 351.345 338.193 350.184 339.287C349.023 340.382 347.448 340.998 345.807 341Z" fill="#F2F2F2"/>
<path d="M525.173 204H257.827C251.775 203.993 245.973 201.716 241.694 197.668C237.414 193.619 235.007 188.13 235 182.406V126.594C235.007 120.87 237.414 115.381 241.694 111.332C245.973 107.284 251.775 105.007 257.827 105H525.173C531.225 105.007 537.027 107.284 541.306 111.332C545.586 115.381 547.993 120.87 548 126.594V182.406C547.993 188.13 545.586 193.619 541.306 197.668C537.027 201.716 531.225 203.993 525.173 204Z" fill="white"/>
<path d="M435.352 186H378.648C377.415 186 376.233 185.579 375.361 184.828C374.49 184.078 374 183.06 374 182C374 180.94 374.49 179.922 375.361 179.172C376.233 178.421 377.415 178 378.648 178H435.352C436.585 178 437.767 178.421 438.639 179.172C439.51 179.922 440 180.94 440 182C440 183.06 439.51 184.078 438.639 184.828C437.767 185.579 436.585 186 435.352 186Z" fill="#01BF71"/>
<path d="M515.212 187H456.788C455.519 187 454.301 186.526 453.403 185.682C452.504 184.838 452 183.693 452 182.5C452 181.307 452.504 180.162 453.403 179.318C454.301 178.474 455.519 178 456.788 178H515.212C516.481 178 517.699 178.474 518.597 179.318C519.496 180.162 520 181.307 520 182.5C520 183.693 519.496 184.838 518.597 185.682C517.699 186.526 516.481 187 515.212 187Z" fill="#01BF71"/>
<path d="M355.212 187H296.788C295.519 187 294.301 186.526 293.403 185.682C292.504 184.838 292 183.693 292 182.5C292 181.307 292.504 180.162 293.403 179.318C294.301 178.474 295.519 178 296.788 178H355.212C356.481 178 357.699 178.474 358.597 179.318C359.496 180.162 360 181.307 360 182.5C360 183.693 359.496 184.838 358.597 185.682C357.699 186.526 356.481 187 355.212 187Z" fill="#01BF71"/>
<path d="M483.5 332C486.538 332 489 329.538 489 326.5C489 323.462 486.538 321 483.5 321C480.462 321 478 323.462 478 326.5C478 329.538 480.462 332 483.5 332Z" fill="#01BF71"/>
<path d="M486 396C489.314 396 492 393.538 492 390.5C492 387.462 489.314 385 486 385C482.686 385 480 387.462 480 390.5C480 393.538 482.686 396 486 396Z" fill="#01BF71"/>
<path d="M576.5 332C579.538 332 582 329.538 582 326.5C582 323.462 579.538 321 576.5 321C573.462 321 571 323.462 571 326.5C571 329.538 573.462 332 576.5 332Z" fill="#01BF71"/>
<path d="M-50.4265 515.356C-50.4271 515.512 -50.3905 515.667 -50.3189 515.812C-50.2473 515.957 -50.1421 516.088 -50.0093 516.199C-49.8765 516.309 -49.7187 516.397 -49.5451 516.456C-49.3715 516.516 -49.1854 516.546 -48.9976 516.546H707.748C708.128 516.546 708.491 516.421 708.759 516.197C709.027 515.974 709.177 515.672 709.177 515.356C709.177 515.04 709.027 514.738 708.759 514.515C708.491 514.291 708.128 514.166 707.748 514.166H-48.9978C-49.1855 514.166 -49.3716 514.196 -49.5452 514.256C-49.7187 514.315 -49.8765 514.403 -50.0093 514.514C-50.1421 514.624 -50.2473 514.756 -50.3189 514.9C-50.3905 515.045 -50.4271 515.2 -50.4265 515.356Z" fill="#CCCCCC"/>
</g>
<defs>
<clipPath id="clip0_62_2">
<rect width="760" height="517" fill="white"/>
</clipPath>
</defs>
</svg>
