<svg width="789" height="506" viewBox="0 0 789 506" fill="none" xmlns="http://www.w3.org/2000/svg">
<g clip-path="url(#clip0_54_35)">
<path d="M763.679 332.712C764.827 331.639 765.725 330.329 766.311 328.871C766.897 327.414 767.156 325.846 767.07 324.278C766.985 322.71 766.557 321.18 765.816 319.795C765.075 318.41 764.039 317.205 762.782 316.264L752.03 192.639L729.556 199.021L747.197 318.982C745.756 321.199 745.178 323.867 745.573 326.482C745.968 329.096 747.308 331.475 749.34 333.168C751.372 334.86 753.953 335.748 756.596 335.664C759.239 335.58 761.759 334.53 763.679 332.712V332.712Z" fill="#FFB8B8"/>
<path d="M746.591 492.157L734.331 492.156L728.499 444.868L746.593 444.869L746.591 492.157Z" fill="#FFB8B8"/>
<path d="M734.363 234.471C733.76 234.467 733.165 234.337 732.615 234.088C732.065 233.84 731.574 233.479 731.172 233.029C730.771 232.579 730.468 232.05 730.284 231.475C730.1 230.901 730.038 230.295 730.103 229.695L734.322 190.885L742.472 184.916L742.657 184.936C742.744 184.946 751.426 186.03 755.316 195.754C758.086 202.678 762.316 215.475 764.591 222.487C764.774 223.051 764.838 223.646 764.78 224.236C764.721 224.825 764.542 225.396 764.253 225.913C763.964 226.43 763.571 226.882 763.099 227.24C762.627 227.598 762.086 227.855 761.51 227.994L735.402 234.344C735.062 234.428 734.713 234.471 734.363 234.471V234.471Z" fill="#01BF71"/>
<path d="M605.568 504.209C595.351 497.374 590.206 484.371 590.003 472.08C589.935 467.959 590.975 463.18 594.668 461.347C595.724 460.823 596.906 460.6 598.081 460.703C599.256 460.807 600.38 461.233 601.329 461.935C602.277 462.637 603.014 463.587 603.457 464.68C603.901 465.774 604.033 466.968 603.841 468.132C605.21 464.123 606.986 460.264 609.142 456.616C610.967 453.528 613.53 450.314 617.105 450.02C621.253 449.68 624.717 453.708 625.305 457.828C625.893 461.948 624.394 466.048 622.921 469.94C623.337 468.178 624.189 466.547 625.398 465.199C626.607 463.85 628.135 462.827 629.842 462.221C631.549 461.616 633.381 461.448 635.169 461.734C636.958 462.02 638.646 462.749 640.08 463.856C644.136 466.987 645.472 472.75 644.452 477.772C643.432 482.793 640.435 487.187 637.121 491.095C633.235 495.678 628.735 499.865 623.348 502.526C617.96 505.186 611.59 506.204 605.859 504.4L605.568 504.209Z" fill="#F2F2F2"/>
<path d="M649.895 339.023C651.301 338.323 652.536 337.324 653.514 336.095C654.492 334.866 655.189 333.438 655.555 331.911C655.922 330.383 655.949 328.794 655.634 327.256C655.32 325.717 654.672 324.266 653.736 323.005L678.769 201.465L655.409 201.157L638.025 321.155C636.011 322.867 634.694 325.259 634.325 327.878C633.956 330.496 634.561 333.159 636.024 335.361C637.487 337.564 639.707 339.153 642.263 339.828C644.82 340.503 647.535 340.216 649.895 339.023V339.023Z" fill="#FFB8B8"/>
<path d="M691.591 492.157L679.331 492.156L673.499 444.868L691.593 444.869L691.591 492.157Z" fill="#FFB8B8"/>
<path d="M670.574 488.653H694.218V503.54H655.688C655.688 499.592 657.256 495.805 660.048 493.014C662.84 490.222 666.626 488.653 670.574 488.653V488.653Z" fill="#2F2E41"/>
<path d="M725.574 488.653H749.218V503.54H710.688C710.688 499.592 712.256 495.805 715.048 493.014C717.84 490.222 721.626 488.653 725.574 488.653V488.653Z" fill="#2F2E41"/>
<path d="M694.768 154.293C708.332 154.293 719.329 143.297 719.329 129.732C719.329 116.167 708.332 105.171 694.768 105.171C681.203 105.171 670.207 116.167 670.207 129.732C670.207 143.297 681.203 154.293 694.768 154.293Z" fill="#FFB8B8"/>
<path d="M729.296 462.319C728.297 462.315 727.329 461.965 726.558 461.329C725.787 460.693 725.26 459.81 725.065 458.829L708.461 372.923C708.309 372.136 707.88 371.43 707.252 370.933C706.624 370.435 705.838 370.18 705.038 370.212C704.237 370.244 703.475 370.562 702.889 371.108C702.303 371.655 701.932 372.393 701.843 373.189L692.546 456.867C692.436 457.888 691.964 458.836 691.214 459.538C690.464 460.24 689.487 460.65 688.461 460.692L674.516 461.326C673.949 461.356 673.382 461.271 672.849 461.078C672.315 460.884 671.826 460.585 671.41 460.199C670.991 459.816 670.652 459.355 670.413 458.84C670.174 458.326 670.04 457.769 670.018 457.202L664.671 327.943C664.642 327.291 664.763 326.64 665.024 326.042C665.285 325.443 665.68 324.912 666.179 324.489L669.271 321.851C670.05 321.187 671.041 320.821 672.066 320.821H744.344C745.486 320.822 746.581 321.277 747.388 322.084C748.195 322.891 748.65 323.986 748.651 325.128V457.357C748.653 458.468 748.225 459.536 747.457 460.338C746.689 461.14 745.641 461.614 744.531 461.66L729.48 462.315C729.419 462.317 729.357 462.319 729.296 462.319Z" fill="#2F2E41"/>
<path d="M692.279 339.628C680.593 339.628 670.293 336.514 665.093 327.433C664.658 326.685 664.454 325.825 664.507 324.961L671.04 225.085C671.093 224.277 670.852 223.478 670.361 222.834L652.028 198.796C651.684 198.345 651.433 197.831 651.288 197.284C651.143 196.736 651.108 196.165 651.185 195.603C651.261 195.042 651.448 194.501 651.734 194.012C652.02 193.523 652.399 193.095 652.851 192.753L680.353 171.917C680.93 171.478 681.351 170.865 681.551 170.168L682.352 167.364C682.6 166.491 683.119 165.718 683.833 165.158C684.547 164.597 685.42 164.277 686.328 164.243L706.508 163.467C707.181 163.444 707.85 163.578 708.462 163.858C709.075 164.138 709.614 164.557 710.037 165.081L712.184 167.765C712.458 168.108 712.796 168.393 713.18 168.605L746.93 187.256C747.596 187.625 748.153 188.164 748.543 188.818C748.934 189.472 749.144 190.217 749.153 190.979L749.154 191.039L749.14 191.096C741.273 223.899 741.715 265.36 750.532 321.581C750.556 322.438 750.323 323.283 749.863 324.007C749.403 324.731 748.738 325.301 747.952 325.644C740.647 328.808 714.06 339.628 692.279 339.628Z" fill="#01BF71"/>
<path d="M671.727 236.604H648.869C648.283 236.605 647.702 236.486 647.164 236.254C646.625 236.023 646.139 235.683 645.737 235.257C645.334 234.831 645.023 234.327 644.822 233.776C644.621 233.225 644.535 232.639 644.569 232.054C644.909 226.23 645.58 215.156 646.252 206.422C647.219 193.854 659.534 187.668 659.658 187.606L659.899 187.488L668.213 192.766L675.95 231.454C676.075 232.078 676.06 232.723 675.905 233.341C675.751 233.959 675.461 234.535 675.057 235.028C674.653 235.521 674.145 235.918 673.569 236.19C672.993 236.463 672.364 236.604 671.727 236.604H671.727Z" fill="#01BF71"/>
<path d="M695.327 154.465C700.58 146.154 694.022 123.276 679.731 122.679C676.432 122.541 675.165 117.74 674.044 114.634C673.473 112.834 673.321 110.926 673.6 109.058C673.879 107.19 674.582 105.41 675.654 103.855C677.836 100.756 680.841 98.3287 684.33 96.8466C688.254 95.0439 692.519 94.1064 696.838 94.0977C701.156 94.089 705.426 95.0094 709.357 96.7964C713.288 98.5833 716.789 101.195 719.622 104.454C722.454 107.714 724.553 111.544 725.775 115.686C726.997 119.828 727.313 124.184 726.703 128.459C726.093 132.734 724.57 136.827 722.238 140.462C719.906 144.097 716.82 147.187 713.188 149.523C709.557 151.86 705.465 153.388 701.191 154.004L695.327 154.465Z" fill="#2F2E41"/>
<path d="M534 0L47 0C45.1441 0.00205925 43.3648 0.740227 42.0525 2.05254C40.7402 3.36484 40.0021 5.14412 40 7L40 337C40.0021 338.856 40.7402 340.635 42.0525 341.948C43.3648 343.26 45.1441 343.998 47 344L534 344C535.856 343.998 537.635 343.26 538.948 341.948C540.26 340.635 540.998 338.856 541 337V7C540.998 5.14412 540.26 3.36484 538.948 2.05254C537.635 0.740227 535.856 0.00205925 534 0V0ZM539 337C538.999 338.326 538.473 339.597 537.535 340.535C536.597 341.473 535.326 341.999 534 342L47 342C45.6741 341.999 44.4026 341.473 43.465 340.535C42.5275 339.597 42.0005 338.326 42 337L42 7C42.0005 5.67408 42.5275 4.40262 43.465 3.46506C44.4026 2.52749 45.6741 2.00053 47 2L534 2C535.326 2.00053 536.597 2.52749 537.535 3.46506C538.473 4.40262 538.999 5.67408 539 7V337Z" fill="#3F3D56"/>
<path d="M540 28.04L41 28.04V30.04L540 30.04V28.04Z" fill="#3F3D56"/>
<path d="M58 21C61.3137 21 64 18.3137 64 15C64 11.6863 61.3137 9 58 9C54.6863 9 52 11.6863 52 15C52 18.3137 54.6863 21 58 21Z" fill="#3F3D56"/>
<path d="M75.25 21C78.5637 21 81.25 18.3137 81.25 15C81.25 11.6863 78.5637 9 75.25 9C71.9363 9 69.25 11.6863 69.25 15C69.25 18.3137 71.9363 21 75.25 21Z" fill="#3F3D56"/>
<path d="M92.5 21C95.8137 21 98.5 18.3137 98.5 15C98.5 11.6863 95.8137 9 92.5 9C89.1863 9 86.5 11.6863 86.5 15C86.5 18.3137 89.1863 21 92.5 21Z" fill="#3F3D56"/>
<path d="M443.827 96.4646L133.827 96.4646C129.716 96.4646 125.773 94.8316 122.867 91.9248C119.96 89.018 118.327 85.0755 118.327 80.9646C118.327 76.8537 119.96 72.9113 122.867 70.0045C125.773 67.0976 129.716 65.4646 133.827 65.4646L443.827 65.4646C447.938 65.4646 451.88 67.0976 454.787 70.0045C457.694 72.9113 459.327 76.8537 459.327 80.9646C459.327 85.0755 457.694 89.018 454.787 91.9248C451.88 94.8316 447.938 96.4646 443.827 96.4646V96.4646ZM133.827 67.4646C130.246 67.4646 126.812 68.8869 124.281 71.4187C121.749 73.9504 120.327 77.3842 120.327 80.9646C120.327 84.545 121.749 87.9788 124.281 90.5106C126.812 93.0423 130.246 94.4646 133.827 94.4646L443.827 94.4646C447.407 94.4646 450.841 93.0423 453.373 90.5106C455.904 87.9788 457.327 84.545 457.327 80.9646C457.327 77.3842 455.904 73.9504 453.373 71.4187C450.841 68.8869 447.407 67.4646 443.827 67.4646L133.827 67.4646Z" fill="#3F3D56"/>
<path d="M213.827 175.465L153.827 175.465C149.716 175.465 145.773 173.832 142.867 170.925C139.96 168.018 138.327 164.075 138.327 159.965C138.327 155.854 139.96 151.911 142.867 149.004C145.773 146.098 149.716 144.465 153.827 144.465L213.827 144.465C217.938 144.465 221.88 146.098 224.787 149.004C227.694 151.911 229.327 155.854 229.327 159.965C229.327 164.075 227.694 168.018 224.787 170.925C221.88 173.832 217.938 175.465 213.827 175.465V175.465ZM153.827 146.465C150.246 146.465 146.812 147.887 144.281 150.419C141.749 152.95 140.327 156.384 140.327 159.965C140.327 163.545 141.749 166.979 144.281 169.511C146.812 172.042 150.246 173.465 153.827 173.465L213.827 173.465C217.407 173.465 220.841 172.042 223.373 169.511C225.904 166.979 227.327 163.545 227.327 159.965C227.327 156.384 225.904 152.95 223.373 150.419C220.841 147.887 217.407 146.465 213.827 146.465L153.827 146.465Z" fill="#3F3D56"/>
<path d="M213.827 227.465L153.827 227.465C149.716 227.465 145.773 225.832 142.867 222.925C139.96 220.018 138.327 216.075 138.327 211.965C138.327 207.854 139.96 203.911 142.867 201.004C145.773 198.098 149.716 196.465 153.827 196.465L213.827 196.465C217.938 196.465 221.88 198.098 224.787 201.004C227.694 203.911 229.327 207.854 229.327 211.965C229.327 216.075 227.694 220.018 224.787 222.925C221.88 225.832 217.938 227.465 213.827 227.465V227.465ZM153.827 198.465C150.246 198.465 146.812 199.887 144.281 202.419C141.749 204.95 140.327 208.384 140.327 211.965C140.327 215.545 141.749 218.979 144.281 221.511C146.812 224.042 150.246 225.465 153.827 225.465L213.827 225.465C217.407 225.465 220.841 224.042 223.373 221.511C225.904 218.979 227.327 215.545 227.327 211.965C227.327 208.384 225.904 204.95 223.373 202.419C220.841 199.887 217.407 198.465 213.827 198.465L153.827 198.465Z" fill="#3F3D56"/>
<path d="M213.827 279.465H153.827C149.716 279.465 145.773 277.832 142.867 274.925C139.96 272.018 138.327 268.075 138.327 263.965C138.327 259.854 139.96 255.911 142.867 253.004C145.773 250.098 149.716 248.465 153.827 248.465L213.827 248.465C217.938 248.465 221.88 250.098 224.787 253.004C227.694 255.911 229.327 259.854 229.327 263.965C229.327 268.075 227.694 272.018 224.787 274.925C221.88 277.832 217.938 279.465 213.827 279.465V279.465ZM153.827 250.465C150.246 250.465 146.812 251.887 144.281 254.419C141.749 256.95 140.327 260.384 140.327 263.965C140.327 267.545 141.749 270.979 144.281 273.511C146.812 276.042 150.246 277.465 153.827 277.465H213.827C217.407 277.465 220.841 276.042 223.373 273.511C225.904 270.979 227.327 267.545 227.327 263.965C227.327 260.384 225.904 256.95 223.373 254.419C220.841 251.887 217.407 250.465 213.827 250.465L153.827 250.465Z" fill="#3F3D56"/>
<path d="M222.827 87.9646L138.827 87.9646C136.97 87.9646 135.19 87.2271 133.877 85.9144C132.564 84.6016 131.827 82.8211 131.827 80.9646C131.827 79.1081 132.564 77.3276 133.877 76.0149C135.19 74.7021 136.97 73.9646 138.827 73.9646L222.827 73.9646C224.683 73.9646 226.464 74.7021 227.776 76.0149C229.089 77.3276 229.827 79.1081 229.827 80.9646C229.827 82.8211 229.089 84.6016 227.776 85.9144C226.464 87.2271 224.683 87.9646 222.827 87.9646Z" fill="#01BF71"/>
<path d="M433.327 84.4646C431.942 84.4646 430.589 84.0541 429.438 83.2849C428.287 82.5157 427.389 81.4225 426.859 80.1434C426.33 78.8643 426.191 77.4568 426.461 76.099C426.731 74.7411 427.398 73.4938 428.377 72.5148C429.356 71.5359 430.603 70.8692 431.961 70.5991C433.319 70.329 434.726 70.4676 436.005 70.9975C437.285 71.5273 438.378 72.4245 439.147 73.5756C439.916 74.7267 440.327 76.0801 440.327 77.4646C440.325 79.3205 439.586 81.0997 438.274 82.412C436.962 83.7243 435.183 84.4625 433.327 84.4646ZM433.327 72.4646C432.338 72.4646 431.371 72.7578 430.549 73.3072C429.727 73.8566 429.086 74.6375 428.707 75.5512C428.329 76.4648 428.23 77.4701 428.423 78.44C428.616 79.41 429.092 80.3009 429.791 81.0001C430.49 81.6994 431.381 82.1756 432.351 82.3685C433.321 82.5614 434.326 82.4624 435.24 82.084C436.154 81.7056 436.935 81.0647 437.484 80.2424C438.033 79.4202 438.327 78.4535 438.327 77.4646C438.325 76.139 437.798 74.8681 436.861 73.9307C435.923 72.9934 434.652 72.4661 433.327 72.4646V72.4646Z" fill="#3F3D56"/>
<path d="M444.155 90.797C444.024 90.7972 443.894 90.7714 443.773 90.7211C443.651 90.6708 443.541 90.597 443.448 90.504L436.422 83.4777C436.329 83.3848 436.256 83.2746 436.206 83.1533C436.155 83.032 436.129 82.902 436.129 82.7707C436.129 82.6394 436.155 82.5093 436.206 82.388C436.256 82.2667 436.329 82.1564 436.422 82.0636C436.515 81.9707 436.625 81.8971 436.747 81.8469C436.868 81.7966 436.998 81.7708 437.129 81.7708C437.261 81.7708 437.391 81.7966 437.512 81.8469C437.633 81.8971 437.744 81.9708 437.836 82.0636L444.862 89.09C445.002 89.2298 445.097 89.408 445.136 89.602C445.175 89.7959 445.155 89.9969 445.079 90.1796C445.003 90.3623 444.875 90.5185 444.711 90.6284C444.547 90.7383 444.353 90.7969 444.155 90.797L444.155 90.797Z" fill="#3F3D56"/>
<path d="M429.327 169.465H395.327C392.807 169.465 390.391 168.464 388.609 166.682C386.828 164.901 385.827 162.484 385.827 159.965C385.827 157.445 386.828 155.029 388.609 153.247C390.391 151.466 392.807 150.465 395.327 150.465H429.327C431.846 150.465 434.263 151.466 436.044 153.247C437.826 155.029 438.827 157.445 438.827 159.965C438.827 162.484 437.826 164.901 436.044 166.682C434.263 168.464 431.846 169.465 429.327 169.465V169.465Z" fill="#01BF71"/>
<path d="M429.327 221.465H395.327C392.807 221.465 390.391 220.464 388.609 218.682C386.828 216.901 385.827 214.484 385.827 211.965C385.827 209.445 386.828 207.029 388.609 205.247C390.391 203.466 392.807 202.465 395.327 202.465H429.327C431.846 202.465 434.263 203.466 436.044 205.247C437.826 207.029 438.827 209.445 438.827 211.965C438.827 214.484 437.826 216.901 436.044 218.682C434.263 220.464 431.846 221.465 429.327 221.465V221.465Z" fill="#01BF71"/>
<path d="M429.327 273.465H395.327C392.807 273.465 390.391 272.464 388.609 270.682C386.828 268.901 385.827 266.484 385.827 263.965C385.827 261.445 386.828 259.029 388.609 257.247C390.391 255.466 392.807 254.465 395.327 254.465H429.327C431.846 254.465 434.263 255.466 436.044 257.247C437.826 259.029 438.827 261.445 438.827 263.965C438.827 266.484 437.826 268.901 436.044 270.682C434.263 272.464 431.846 273.465 429.327 273.465V273.465Z" fill="#01BF71"/>
<path d="M774.606 505.465L526.606 505.465C526.341 505.465 526.087 505.359 525.899 505.172C525.712 504.984 525.606 504.73 525.606 504.465C525.606 504.199 525.712 503.945 525.899 503.757C526.087 503.57 526.341 503.465 526.606 503.465L774.606 503.465C774.872 503.465 775.126 503.57 775.314 503.757C775.501 503.945 775.606 504.199 775.606 504.465C775.606 504.73 775.501 504.984 775.314 505.172C775.126 505.359 774.872 505.465 774.606 505.465Z" fill="#3F3D56"/>
</g>
<defs>
<clipPath id="clip0_54_35">
<rect width="788.606" height="505.465" fill="white" transform="matrix(-1 0 0 1 788.606 0)"/>
</clipPath>
</defs>
</svg>
